<svg width="24" height="23" viewBox="0 0 24 23" fill="none" xmlns="http://www.w3.org/2000/svg">
<path d="M2.65939 8.46726L3.44964 6.49163C3.47586 6.42607 3.50944 6.36263 3.5491 6.30422C5.27226 3.76672 6.75105 2.64329 9.68979 1.2103C9.96439 1.0764 10.2851 1.08241 10.5657 1.20323C11.7913 1.73089 12.5238 1.67708 13.4682 1.20949C13.7216 1.084 14.015 1.04998 14.2818 1.14369C17.4416 2.2534 18.7989 3.51101 20.4978 6.39302L21.3275 8.46726C21.6041 9.29695 22.2402 11.6201 22.5721 14.2751C22.904 16.9302 22.9869 20.083 22.9869 21.3275L20.4978 21.7424C20.7744 19.6681 19.9171 12.1179 17.5939 8.46726C17.8705 12.754 18.754 22.1261 18.4236 22.1572C13.2915 22.6407 10.4881 22.587 5.56332 22.1572C5.56332 22.1572 6.11645 12.754 6.39302 8.46726C4.06987 12.1179 3.21252 19.6681 3.48909 21.7424L1 21.3275C1 20.083 1.08297 16.9302 1.41485 14.2751C1.74673 11.6201 2.38283 9.29695 2.65939 8.46726Z" fill="#27AE60"/>
<path d="M3.44964 6.49163L3.91388 6.67733L3.44964 6.49163ZM2.65939 8.46726L2.19515 8.28156L2.1897 8.2952L2.18505 8.30914L2.65939 8.46726ZM1.41485 14.2751L0.918709 14.2131L0.918709 14.2131L1.41485 14.2751ZM1 21.3275H0.5V21.7511L0.9178 21.8207L1 21.3275ZM3.48909 21.7424L3.40689 22.2356L4.0741 22.3468L3.9847 21.6763L3.48909 21.7424ZM6.39302 8.46726L6.89198 8.49945L5.97119 8.19882L6.39302 8.46726ZM5.56332 22.1572L5.06419 22.1279L5.03565 22.6131L5.51985 22.6553L5.56332 22.1572ZM20.4978 6.39302L20.9621 6.20732L20.9479 6.17193L20.9286 6.1391L20.4978 6.39302ZM21.3275 8.46726L21.8019 8.30914L21.7972 8.2952L21.7918 8.28156L21.3275 8.46726ZM22.5721 14.2751L23.0682 14.2131L23.0682 14.2131L22.5721 14.2751ZM22.9869 21.3275L23.0691 21.8207L23.4869 21.7511V21.3275H22.9869ZM20.4978 21.7424L20.0022 21.6763L19.9128 22.3468L20.58 22.2356L20.4978 21.7424ZM17.5939 8.46726L18.0157 8.19882L17.0949 8.49945L17.5939 8.46726ZM18.4236 22.1572L18.3767 21.6594L18.3767 21.6594L18.4236 22.1572ZM10.5657 1.20323L10.368 1.66247L10.368 1.66247L10.5657 1.20323ZM13.4682 1.20949L13.2463 0.761405L13.4682 1.20949ZM14.2818 1.14369L14.4475 0.671941L14.4475 0.67194L14.2818 1.14369ZM3.5491 6.30422L3.13546 6.02332L3.13546 6.02332L3.5491 6.30422ZM9.68979 1.2103L9.47065 0.760881L9.47065 0.760881L9.68979 1.2103ZM2.9854 6.30594L2.19515 8.28156L3.12363 8.65295L3.91388 6.67733L2.9854 6.30594ZM2.18505 8.30914C1.89899 9.16732 1.25502 11.5227 0.918709 14.2131L1.91099 14.3371C2.23844 11.7176 2.86666 9.42659 3.13373 8.62537L2.18505 8.30914ZM0.918709 14.2131C0.583266 16.8967 0.5 20.0722 0.5 21.3275H1.5C1.5 20.0938 1.58267 16.9637 1.91099 14.3371L0.918709 14.2131ZM0.9178 21.8207L3.40689 22.2356L3.57129 21.2492L1.0822 20.8343L0.9178 21.8207ZM3.9847 21.6763C3.85706 20.719 3.99026 18.3757 4.4582 15.7848C4.92547 13.1977 5.70711 10.4764 6.81485 8.7357L5.97119 8.19882C4.75579 10.1087 3.94717 12.9879 3.47412 15.6071C3.00174 18.2226 2.84455 20.6915 2.99347 21.8085L3.9847 21.6763ZM5.89406 8.43507C5.75569 10.5798 5.5482 14.0033 5.37535 16.8899C5.28892 18.3334 5.21113 19.6428 5.15495 20.5914C5.12686 21.0657 5.10417 21.4498 5.0885 21.7154C5.08067 21.8481 5.07459 21.9512 5.07047 22.0212C5.06841 22.0561 5.06684 22.0828 5.06578 22.1007C5.06526 22.1097 5.06486 22.1165 5.06459 22.121C5.06446 22.1233 5.06436 22.125 5.06429 22.1261C5.06425 22.1267 5.06423 22.1272 5.06421 22.1274C5.0642 22.1276 5.0642 22.1277 5.06419 22.1278C5.06419 22.1278 5.06419 22.1279 5.56332 22.1572C6.06246 22.1866 6.06246 22.1866 6.06247 22.1865C6.06247 22.1864 6.06248 22.1863 6.06249 22.1862C6.0625 22.1859 6.06253 22.1855 6.06256 22.1849C6.06263 22.1837 6.06273 22.182 6.06286 22.1798C6.06313 22.1752 6.06353 22.1685 6.06406 22.1595C6.06511 22.1416 6.06668 22.1149 6.06874 22.08C6.07286 22.0101 6.07893 21.907 6.08676 21.7743C6.10243 21.5088 6.12511 21.1248 6.1532 20.6506C6.20937 19.7021 6.28715 18.3929 6.37357 16.9497C6.54643 14.0629 6.75378 10.6415 6.89198 8.49945L5.89406 8.43507ZM20.0336 6.57871L20.8633 8.65295L21.7918 8.28156L20.9621 6.20732L20.0336 6.57871ZM20.8532 8.62537C21.1203 9.42658 21.7485 11.7175 22.0759 14.3371L23.0682 14.2131C22.7319 11.5227 22.0879 9.16732 21.8019 8.30914L20.8532 8.62537ZM22.0759 14.3371C22.4043 16.9637 22.4869 20.0938 22.4869 21.3275H23.4869C23.4869 20.0722 23.4037 16.8966 23.0682 14.2131L22.0759 14.3371ZM22.9047 20.8343L20.4156 21.2492L20.58 22.2356L23.0691 21.8207L22.9047 20.8343ZM20.9935 21.8085C21.1424 20.6915 20.9852 18.2226 20.5128 15.6071C20.0398 12.9879 19.2311 10.1087 18.0157 8.19882L17.1721 8.7357C18.2798 10.4764 19.0615 13.1977 19.5287 15.7848C19.9967 18.3757 20.1299 20.719 20.0022 21.6763L20.9935 21.8085ZM17.0949 8.49945C17.2334 10.6448 17.5244 14.0727 17.7377 16.9451C17.8448 18.3862 17.9324 19.6878 17.9727 20.6293C17.9929 21.1019 18.0008 21.4732 17.9943 21.7229C17.991 21.8512 17.9843 21.9282 17.9783 21.9652C17.9746 21.9878 17.9754 21.9682 17.9912 21.9312C17.999 21.913 18.0214 21.8637 18.0697 21.8111C18.1213 21.7548 18.2233 21.6739 18.3767 21.6594L18.4705 22.655C18.6343 22.6396 18.746 22.5532 18.8068 22.4869C18.8642 22.4243 18.8952 22.3606 18.911 22.3236C18.9428 22.249 18.9574 22.1745 18.9653 22.1257C18.9825 22.0199 18.9904 21.8882 18.994 21.7488C19.0014 21.4633 18.9922 21.0639 18.9718 20.5865C18.9307 19.628 18.8421 18.3128 18.735 16.8711C18.5201 13.978 18.231 10.5765 18.0929 8.43507L17.0949 8.49945ZM5.51985 22.6553C10.4699 23.0873 13.3039 23.1418 18.4705 22.655L18.3767 21.6594C13.2791 22.1397 10.5062 22.0867 5.60679 21.6591L5.51985 22.6553ZM10.368 1.66247C11.0175 1.9421 11.5794 2.08672 12.1289 2.07954C12.6829 2.07229 13.1774 1.91139 13.69 1.65757L13.2463 0.761405C12.8145 0.975187 12.4706 1.07498 12.1158 1.07962C11.7567 1.08432 11.3395 0.992014 10.7635 0.743984L10.368 1.66247ZM14.1161 1.61545C15.6609 2.15798 16.7281 2.72376 17.6118 3.48298C18.4983 4.24465 19.2295 5.22605 20.0671 6.64694L20.9286 6.1391C20.0672 4.67797 19.2703 3.58956 18.2635 2.7245C17.2538 1.85699 16.0624 1.23911 14.4475 0.671941L14.1161 1.61545ZM3.96274 6.58511C4.80491 5.34495 5.57416 4.46937 6.47971 3.73046C7.38887 2.9886 8.45398 2.36918 9.90894 1.65971L9.47065 0.760881C7.98685 1.48441 6.8432 2.14319 5.84749 2.95567C4.84817 3.7711 4.01645 4.72598 3.13546 6.02332L3.96274 6.58511ZM13.69 1.65757C13.8422 1.58225 13.9955 1.57306 14.1161 1.61545L14.4475 0.67194C14.0345 0.5269 13.6011 0.585752 13.2463 0.761405L13.69 1.65757ZM3.91388 6.67733C3.92695 6.64465 3.94367 6.61319 3.96274 6.58511L3.13546 6.02332C3.0752 6.11206 3.02478 6.2075 2.9854 6.30594L3.91388 6.67733ZM10.7635 0.743984C10.3648 0.572318 9.89073 0.556041 9.47065 0.760881L9.90894 1.65972C10.0381 1.59675 10.2055 1.5925 10.368 1.66247L10.7635 0.743984Z" fill="black"/>
</svg>
