<svg width="32" height="32" viewBox="0 0 32 32" fill="none" xmlns="http://www.w3.org/2000/svg">
<path d="M15.4362 26.5H9.03192L8.11702 13.234L6.28723 14.1489L4 10.0319L9.48936 6.37234L12.6895 5.1723C12.9793 5.06362 13.3006 5.10173 13.5789 5.23711C15.1975 6.02439 16.6295 5.55811 17.3076 5.23309C17.5803 5.10238 17.8925 5.0483 18.1833 5.13138L20.9255 5.91489L27.3298 9.57446L25.5 13.6915L23.2128 13.234L22.7553 26.5H16.3511H15.4362Z" fill="#4F4F4F"/>
<path d="M9.03192 26.5L8.5331 26.5344L8.56521 27H9.03192V26.5ZM8.11702 13.234L8.61584 13.1996L8.56424 12.4514L7.89342 12.7868L8.11702 13.234ZM6.28723 14.1489L5.85016 14.3918L6.08265 14.8102L6.51084 14.5961L6.28723 14.1489ZM4 10.0319L3.72265 9.61589L3.33899 9.87166L3.56292 10.2747L4 10.0319ZM9.48936 6.37234L9.3138 5.90417L9.25991 5.92438L9.21201 5.95631L9.48936 6.37234ZM12.6895 5.1723L12.5139 4.70414L12.5139 4.70414L12.6895 5.1723ZM13.5789 5.23711L13.3602 5.68674L13.3602 5.68674L13.5789 5.23711ZM17.3076 5.23309L17.0915 4.7822L17.0915 4.7822L17.3076 5.23309ZM22.7553 26.5V27H23.2384L23.255 26.5172L22.7553 26.5ZM23.2128 13.234L23.3108 12.7437L22.7334 12.6283L22.7131 13.2168L23.2128 13.234ZM25.5 13.6915L25.4019 14.1818L25.7944 14.2603L25.9569 13.8946L25.5 13.6915ZM27.3298 9.57446L27.7867 9.77753L27.9702 9.36456L27.5779 9.14034L27.3298 9.57446ZM20.9255 5.91489L21.1736 5.48077L21.1211 5.45075L21.0629 5.43413L20.9255 5.91489ZM18.1833 5.13138L18.0459 5.61215L18.0459 5.61215L18.1833 5.13138ZM9.03192 27H15.4362V26H9.03192V27ZM15.4362 27H16.3511V26H15.4362V27ZM7.61821 13.2684L8.5331 26.5344L9.53073 26.4656L8.61584 13.1996L7.61821 13.2684ZM7.89342 12.7868L6.06363 13.7017L6.51084 14.5961L8.34063 13.6813L7.89342 12.7868ZM6.72431 13.9061L4.43708 9.78909L3.56292 10.2747L5.85016 14.3918L6.72431 13.9061ZM4.27735 10.4479L9.76671 6.78836L9.21201 5.95631L3.72265 9.61589L4.27735 10.4479ZM9.66492 6.8405L12.865 5.64047L12.5139 4.70414L9.3138 5.90417L9.66492 6.8405ZM13.3602 5.68674C15.1722 6.56811 16.7766 6.04205 17.5237 5.68398L17.0915 4.7822C16.4824 5.07417 15.2228 5.48067 13.7976 4.78747L13.3602 5.68674ZM22.7553 26H16.3511V27H22.7553V26ZM22.7131 13.2168L22.2556 26.4828L23.255 26.5172L23.7125 13.2513L22.7131 13.2168ZM23.1147 13.7243L25.4019 14.1818L25.5981 13.2012L23.3108 12.7437L23.1147 13.7243ZM25.9569 13.8946L27.7867 9.77753L26.8729 9.3714L25.0431 13.4884L25.9569 13.8946ZM27.5779 9.14034L21.1736 5.48077L20.6775 6.34901L27.0817 10.0086L27.5779 9.14034ZM21.0629 5.43413L18.3206 4.65062L18.0459 5.61215L20.7882 6.39565L21.0629 5.43413ZM17.5237 5.68398C17.7177 5.59102 17.9023 5.57112 18.0459 5.61215L18.3206 4.65062C17.8826 4.52549 17.443 4.61373 17.0915 4.7822L17.5237 5.68398ZM12.865 5.64047C13.0019 5.58915 13.1794 5.59881 13.3602 5.68674L13.7976 4.78747C13.4217 4.60464 12.9567 4.5381 12.5139 4.70414L12.865 5.64047Z" fill="black"/>
</svg>
