<svg width="32" height="32" viewBox="0 0 32 32" fill="none" xmlns="http://www.w3.org/2000/svg">
<path d="M23.5 7L27.5 21L26 21.525L17.5 24.5L16 17.5L14.5 24.5L6.425 21.525L5 21L8.5 7H23.5Z" fill="#4F4F4F"/>
<path d="M27.5 21L27.6652 21.4719L28.1103 21.3161L27.9808 20.8626L27.5 21ZM23.5 7L23.9808 6.86264L23.8772 6.5H23.5V7ZM16 17.5L16.4889 17.3952H15.5111L16 17.5ZM17.5 24.5L17.0111 24.6048L17.1299 25.1593L17.6652 24.9719L17.5 24.5ZM14.5 24.5L14.3271 24.9692L14.8681 25.1685L14.9889 24.6048L14.5 24.5ZM5 21L4.51493 20.8787L4.4061 21.314L4.82715 21.4692L5 21ZM8.5 7V6.5H8.10961L8.01493 6.87873L8.5 7ZM22 7.72831L21.7943 7.27258L21.7943 7.27258L22 7.72831ZM27.9808 20.8626L23.9808 6.86264L23.0192 7.13736L27.0192 21.1374L27.9808 20.8626ZM15.5111 17.6048L17.0111 24.6048L17.9889 24.3952L16.4889 17.3952L15.5111 17.6048ZM14.6729 24.0308L6.59785 21.0558L6.25215 21.9942L14.3271 24.9692L14.6729 24.0308ZM6.59785 21.0558L5.17285 20.5308L4.82715 21.4692L6.25215 21.9942L6.59785 21.0558ZM5.48507 21.1213L8.98507 7.12127L8.01493 6.87873L4.51493 20.8787L5.48507 21.1213ZM15.5111 17.3952L14.0111 24.3952L14.9889 24.6048L16.4889 17.6048L15.5111 17.3952ZM8.5 7.5H23.5V6.5H8.5V7.5ZM8.29032 7.45391C8.87761 7.7252 9.44028 7.97101 9.98215 8.19145L10.359 7.26516C9.8335 7.05139 9.28512 6.8119 8.70968 6.54609L8.29032 7.45391ZM9.98215 8.19145C12.3841 9.1686 14.3888 9.65212 16.3327 9.64118C18.2798 9.63021 20.1244 9.12343 22.2057 8.18403L21.7943 7.27258C19.7945 8.17522 18.0911 8.63126 16.3271 8.64119C14.5599 8.65114 12.6905 8.21365 10.359 7.26516L9.98215 8.19145ZM22.2057 8.18403C22.6985 7.96163 23.2048 7.7148 23.7292 7.44438L23.2708 6.55562C22.7591 6.81954 22.2685 7.05853 21.7943 7.27258L22.2057 8.18403ZM17.6652 24.9719L26.1652 21.9969L25.8348 21.0531L17.3348 24.0281L17.6652 24.9719ZM26.1652 21.9969L27.6652 21.4719L27.3348 20.5281L25.8348 21.0531L26.1652 21.9969ZM21.5198 7.86753L25.5198 21.6642L26.4802 21.3858L22.4802 7.58908L21.5198 7.86753ZM9.68803 7.59731L5.94247 21.394L6.90753 21.656L10.6531 7.85931L9.68803 7.59731Z" fill="black"/>
</svg>
