<svg xmlns="http://www.w3.org/2000/svg" width="32" height="32" viewBox="0 0 32 32" fill="#4286f4"><path d="M23 26.5H8V20 16C8.8 15.5 10.4 12.6 10 5H11C11.6 5 12 5.4 12 6V8.9C12 9.3 12.2 9.6 12.5 9.8 14.7 11 16.1 11 18.5 9.8 18.8 9.6 19 9.3 19 8.9V6C19 5.4 19.4 5 20 5H21C20.6 12.6 22.2 15.5 23 16 23 17.6 23 20 23 20V26.5Z" fill="#4F4F4F"/><path d="M8 26.5H7.5V27H8V26.5ZM23 26.5V27H23.5V26.5H23ZM23 16H23.5V15.7L23.3 15.6 23 16ZM21 5L21.5 5 21.5 4.5H21V5ZM18.5 9.8L18.7 10.2 18.7 10.2 18.5 9.8ZM12.5 9.8L12.7 9.3 12.7 9.3 12.5 9.8ZM8 16L7.7 15.6 7.5 15.7V16H8ZM10 5V4.5H9.5L9.5 5 10 5ZM8 27H23V26H8V27ZM23.3 15.6C23.2 15.5 23 15.3 22.7 14.9 22.5 14.5 22.2 13.9 22 13 21.6 11.4 21.3 8.8 21.5 5L20.5 5C20.3 8.8 20.6 11.5 21.1 13.3 21.3 14.2 21.6 14.9 21.8 15.4 22.1 15.9 22.4 16.2 22.7 16.4L23.3 15.6ZM21 4.5H20V5.5H21V4.5ZM18.5 6V8.9H19.5V6H18.5ZM18.2 9.3C17.1 9.9 16.2 10.2 15.4 10.2 14.6 10.2 13.8 9.9 12.7 9.3L12.3 10.2C13.4 10.8 14.4 11.2 15.4 11.2 16.4 11.2 17.5 10.8 18.7 10.2L18.2 9.3ZM12.5 8.9V6H11.5V8.9H12.5ZM8.3 16.4C8.6 16.2 8.9 15.9 9.2 15.4 9.4 14.9 9.7 14.2 9.9 13.3 10.4 11.5 10.7 8.8 10.5 5L9.5 5C9.7 8.8 9.4 11.4 9 13 8.8 13.9 8.5 14.5 8.3 14.9 8 15.3 7.8 15.5 7.7 15.6L8.3 16.4ZM11 4.5H10V5.5H11V4.5ZM8 16C8 16.5 8 16.5 8 16.5 8 16.5 8 16.5 8 16.5 8 16.5 8 16.5 8 16.5 8 16.5 8 16.5 8 16.5 8 16.5 8 16.5 8 16.5 8 16.5 8 16.5 8 16.5 8 16.5 8 16.5 8 16.5 8 16.5 8 16.5 8 16.5 8 16.5 8 16.5 8 16.5 8 16.5 8 16.5 8 16.5 8 16.5 8 16.5 8 16.5 8 16.5 8 16.5 8 16.5 8 16.5 8 16.5 8 16.5 8 16.5 8 16.5 8 16.5 8 16.5 8 16.5 8 16.5 8 16.5 8 16.5 8 16.5 8 16.5 8 16.5 8 16.5 8 16.5 8 16.5 8 16.5 8 16.5 8 16.5 8 16.5 8 16.5 8 16.5 8 16.5 8 16.5 8 16.5 8 16.5 8 16.5 8 16.5 8 16.5 8.1 16.5 8.1 16.5 8.1 16.5 8.1 16.5 8.1 16.5 8.1 16.5 8.1 16.5 8.1 16.5 8.1 16.5 8.1 16.5 8.1 16.5 8.1 16.5 8.1 16.5 8.1 16.5 8.1 16.5 8.1 16.5 8.1 16.5 8.1 16.5 8.1 16.5 8.1 16.5 8.1 16.5 8.1 16.5 8.1 16.5 8.1 16.5 8.1 16.5 8.1 16.5 8.1 16.5 8.1 16.5 8.1 16.5 8.1 16.5 8.1 16.5 8.1 16.5 8.1 16.5 8.1 16.5 8.1 16.5 8.1 16.5 8.1 16.5 8.1 16.5 8.1 16.5 8.1 16.5 8.1 16.5 8.1 16.5 8.1 16.5 8.1 16.5 8.1 16.5 8.1 16.5 8.1 16.5 8.1 16.5 8.1 16.5 8.2 16.5 8.2 16.5 8.2 16.5 8.2 16.5 8.2 16.5 8.2 16.5 8.2 16.5 8.2 16.5 8.2 16.5 8.2 16.5 8.2 16.5 8.2 16.5 8.2 16.5 8.2 16.5 8.2 16.5 8.2 16.5 8.2 16.5 8.2 16.5 8.2 16.5 8.2 16.5 8.2 16.5 8.2 16.5 8.2 16.5 8.2 16.5 8.2 16.5 8.2 16.5 8.2 16.5 8.2 16.5 8.2 16.5 8.2 16.5 8.2 16.5 8.2 16.5 8.2 16.5 8.2 16.5 8.2 16.5 8.3 16.5 8.3 16.5 8.3 16.5 8.3 16.5 8.3 16.5 8.3 16.5 8.3 16.5 8.3 16.5 8.3 16.5 8.3 16.5 8.3 16.5 8.3 16.5 8.3 16.5 8.3 16.5 8.3 16.5 8.3 16.5 8.3 16.5 8.3 16.5 8.3 16.5 8.3 16.5 8.3 16.5 8.3 16.5 8.3 16.5 8.3 16.5 8.3 16.5 8.3 16.5 8.3 16.5 8.3 16.5 8.4 16.5 8.4 16.5 8.4 16.5 8.4 16.5 8.4 16.5 8.4 16.5 8.4 16.5 8.4 16.5 8.4 16.5 8.4 16.5 8.4 16.5 8.4 16.5 8.4 16.5 8.4 16.5 8.4 16.5 8.4 16.5 8.4 16.5 8.4 16.5 8.4 16.5 8.4 16.5 8.4 16.5 8.4 16.5 8.4 16.5 8.4 16.5 8.5 16.5 8.5 16.5 8.5 16.5 8.5 16.5 8.5 16.5 8.5 16.5 8.5 16.5 8.5 16.5 8.5 16.5 8.5 16.5 8.5 16.5 8.5 16.5 8.5 16.5 8.5 16.5 8.5 16.5 8.5 16.5 8.5 16.5 8.5 16.5 8.5 16.5 8.5 16.5 8.5 16.5 8.5 16.5 8.5 16.5 8.6 16.5 8.6 16.5 8.6 16.5 8.6 16.5 8.6 16.5 8.6 16.5 8.6 16.5 8.6 16.5 8.6 16.5 8.6 16.5 8.6 16.5 8.6 16.5 8.6 16.5 8.6 16.5 8.6 16.5 8.6 16.5 8.6 16.5 8.6 16.5 8.6 16.5 8.6 16.5 8.7 16.5 8.7 16.5 8.7 16.5 8.7 16.5 8.7 16.5 8.7 16.5 8.7 16.5 8.7 16.5 8.7 16.5 8.7 16.5 8.7 16.5 8.7 16.5 8.7 16.5 8.7 16.5 8.7 16.5 8.7 16.5 8.7 16.5 8.7 16.5 8.7 16.5 8.8 16.5 8.8 16.5 8.8 16.5 8.8 16.5 8.8 16.5 8.8 16.5 8.8 16.5 8.8 16.5 8.8 16.5 8.8 16.5 8.8 16.5 8.8 16.5 8.8 16.5 8.8 16.5 8.8 16.5 8.8 16.5 8.8 16.5 8.8 16.5 8.9 16.5 8.9 16.5 8.9 16.5 8.9 16.5 8.9 16.5 8.9 16.5 8.9 16.5 8.9 16.5 8.9 16.5 8.9 16.5 8.9 16.5 8.9 16.5 8.9 16.5 8.9 16.5 8.9 16.5 8.9 16.5 8.9 16.5 9 16.5 9 16.5 9 16.5 9 16.5 9 16.5 9 16.5 9 16.5 9 16.5 9 16.5 9 16.5 9 16.5 9 16.5 9 16.5 9 16.5 9 16.5 9 16.5 9.1 16.5 9.1 16.5 9.1 16.5 9.1 16.5 9.1 16.5 9.1 16.5 9.1 16.5 9.1 16.5 9.1 16.5 9.1 16.5 9.1 16.5 9.1 16.5 9.1 16.5 9.1 16.5 9.1 16.5 9.1 16.5 9.2 16.5 9.2 16.5 9.2 16.5 9.2 16.5 9.2 16.5 9.2 16.5 9.2 16.5 9.2 16.5 9.2 16.5 9.2 16.5 9.2 16.5 9.2 16.5 9.2 16.5 9.2 16.5 9.2 16.5 9.3 16.5 9.3 16.5 9.3 16.5 9.3 16.5 9.3 16.5 9.3 16.5 9.3 16.5 9.3 16.5 9.3 16.5 9.3 16.5 9.3 16.5 9.3 16.5 9.3 16.5 9.3 16.5 9.4 16.5 9.4 16.5 9.4 16.5 9.4 16.5 9.4 16.5 9.4 16.5 9.4 16.5 9.4 16.5 9.4 16.5 9.4 16.5 9.4 16.5 9.4 16.5 9.4 16.5 9.4 16.5 9.5 16.5 9.5 16.5 9.5 16.5 9.5 16.5 9.5 16.5 9.5 16.5 9.5 16.5 9.5 16.5 9.5 16.5 9.5 16.5 9.5 16.5 9.5 16.5 9.5 16.5 9.5 16.5 9.6 16.5 9.6 16.5 9.6 16.5 9.6 16.5 9.6 16.5 9.6 16.5 9.6 16.5 9.6 16.5 9.6 16.5 9.6 16.5 9.6 16.5 9.6 16.5 9.6 16.5 9.7 16.5 9.7 16.5 9.7 16.5 9.7 16.5 9.7 16.5 9.7 16.5 9.7 16.5 9.7 16.5 9.7 16.5 9.7 16.5 9.7 16.5 9.7 16.5 9.7 16.5 9.8 16.5 9.8 16.5 9.8 16.5 9.8 16.5 9.8 16.5 9.8 16.5 9.8 16.5 9.8 16.5 9.8 16.5 9.8 16.5 9.8 16.5 9.8 16.5 9.9 16.5 9.9 16.5 9.9 16.5 9.9 16.5 9.9 16.5 9.9 16.5 9.9 16.5 9.9 16.5 9.9 16.5 9.9 16.5 9.9 16.5 9.9 16.5 10 16.5 10 16.5 10 16.5 10 16.5 10 16.5 10 16.5 10 16.5 10 16.5 10 16.5 10 16.5 10 16.5 10 16.5 10 16.5 10.1 16.5 10.1 16.5 10.1 16.5 10.1 16.5 10.1 16.5 10.1 16.5 10.1 16.5 10.1 16.5 10.1 16.5 10.1 16.5 10.1 16.5 10.2 16.5 10.2 16.5 10.2 16.5 10.2 16.5 10.2 16.5 10.2 16.5 10.2 16.5 10.2 16.5 10.2 16.5 10.2 16.5 10.2 16.5 10.2 16.5 10.3 16.5 10.3 16.5 10.3 16.5 10.3 16.5 10.3 16.5 10.3 16.5 10.3 16.5 10.3 16.5 10.3 16.5 10.3 16.5 10.3 16.5 10.4 16.5 10.4 16.5 10.4 16.5 10.4 16.5 10.4 16.5 10.4 16.5 10.4 16.5 10.4 16.5 10.4 16.5 10.4 16.5 10.4 16.5 10.5 16.5 10.5 16.5 10.5 16.5 10.5 16.5 10.5 16.5 10.5 16.5 10.5 16.5 10.5 16.5 10.5 16.5 10.5 16.5 10.5 16.5 10.6 16.5 10.6 16.5 10.6 16.5 10.6 16.5 10.6 16.5 10.6 16.5 10.6 16.5 10.6 16.5 10.6 16.5 10.6 16.5 10.6 16.5 10.7 16.5 10.7 16.5 10.7 16.5 10.7 16.5 10.7 16.5 10.7 16.5 10.7 16.5 10.7 16.5 10.7 16.5 10.7 16.5 10.7 16.5 10.8 16.5 10.8 16.5 10.8 16.5 10.8 16.5 10.8 16.5 10.8 16.5 10.8 16.5 10.8 16.5 10.8 16.5 10.8 16.5 10.8 16.5 10.9 16.5 10.9 16.5 10.9 16.5 10.9 16.5 10.9 16.5 10.9 16.5 10.9 16.5 10.9 16.5 10.9 16.5 10.9 16.5 11 16.5 11 16.5 11 16.5 11 16.5 11 16.5 11 16.5 11 16.5 11 16.5 11 16.5 11 16.5 11.1 16.5 11.1 16.5 11.1 16.5 11.1 16.5 11.1 16.5 11.1 16.5 11.1 16.5 11.1 16.5 11.1 16.5 11.1 16.5 11.2 16.5 11.2 16.5 11.2 16.5 11.2 16.5 11.2 16.5 11.2 16.5 11.2 16.5 11.2 16.5 11.2 16.5 11.2 16.5 11.3 16.5 11.3 16.5 11.3 16.5 11.3 16.5 11.3 16.5 11.3 16.5 11.3 16.5 11.3 16.5 11.3 16.5 11.3 16.5 11.4 16.5 11.4 16.5 11.4 16.5 11.4 16.5 11.4 16.5 11.4 16.5 11.4 16.5 11.4 16.5 11.4 16.5 11.4 16.5 11.5 16.5 11.5 16.5 11.5 16.5 11.5 16.5 11.5 16.5 11.5 16.5 11.5 16.5 11.5 16.5 11.5 16.5 11.5 16.5 11.6 16.5 11.6 16.5 11.6 16.5 11.6 16.5 11.6 16.5 11.6 16.5 11.6 16.5 11.6 16.5 11.6 16.5 11.7 16.5 11.7 16.5 11.7 16.5 11.7 16.5 11.7 16.5 11.7 16.5 11.7 16.5 11.7 16.5 11.7 16.5 11.7 16.5 11.8 16.5 11.8 16.5 11.8 16.5 11.8 16.5 11.8 16.5 11.8 16.5 11.8 16.5 11.8 16.5 11.8 16.5 11.9 16.5 11.9 16.5 11.9 16.5 11.9 16.5 11.9 16.5 11.9 16.5 11.9 16.5 11.9 16.5 11.9 16.5 11.9 16.5 12 16.5 12 16.5 12 16.5 12 16.5 12 16.5 12 16.5 12 16.5 12 16.5 12 16.5 12.1 16.5 12.1 16.5 12.1 16.5 12.1 16.5 12.1 16.5 12.1 16.5 12.1 16.5 12.1 16.5 12.1 16.5 12.2 16.5 12.2 16.5 12.2 16.5 12.2 16.5 12.2 16.5 12.2 16.5 12.2 16.5 12.2 16.5 12.2 16.5 12.3 16.5 12.3 16.5 12.3 16.5 12.3 16.5 12.3 16.5 12.3 16.5 12.3 16.5 12.3 16.5 12.3 16.5 12.4 16.5 12.4 16.5 12.4 16.5 12.4 16.5 12.4 16.5 12.4 16.5 12.4 16.5 12.4 16.5 12.4 16.5 12.5 16.5 12.5 16.5 12.5 16.5 12.5 16.5 12.5 16.5 12.5 16.5 12.5 16.5 12.5 16.5 12.5 16.5 12.6 16.5 12.6 16.5 12.6 16.5 12.6 16.5 12.6 16.5 12.6 16.5 12.6 16.5 12.6 16.5 12.6 16.5 12.7 16.5 12.7 16.5 12.7 16.5 12.7 16.5 12.7 16.5 12.7 16.5 12.7 16.5 12.7 16.5 12.7 16.5 12.8 16.5 12.8 16.5 12.8 16.5 12.8 16.5 12.8 16.5 12.8 16.5 12.8 16.5 12.8 16.5 12.8 16.5 12.9 16.5 12.9 16.5 12.9 16.5 12.9 16.5 12.9 16.5 12.9 16.5 12.9 16.5 12.9 16.5 13 16.5 13 16.5 13 16.5 13 16.5 13 16.5 13 16.5 13 16.5 13 16.5 13 16.5 13.1 16.5 13.1 16.5 13.1 16.5 13.1 16.5 13.1 16.5 13.1 16.5 13.1 16.5 13.1 16.5 13.2 16.5 13.2 16.5 13.2 16.5 13.2 16.5 13.2 16.5 13.2 16.5 13.2 16.5 13.2 16.5 13.2 16.5 13.3 16.5 13.3 16.5 13.3 16.5 13.3 16.5 13.3 16.5 13.3 16.5 13.3 16.5 13.3 16.5 13.4 16.5 13.4 16.5 13.4 16.5 13.4 16.5 13.4 16.5 13.4 16.5 13.4 16.5 13.4 16.5 13.4 16.5 13.5 16.5 13.5 16.5 13.5 16.5 13.5 16.5 13.5 16.5 13.5 16.5 13.5 16.5 13.5 16.5 13.6 16.5 13.6 16.5 13.6 16.5 13.6 16.5 13.6 16.5 13.6 16.5 13.6 16.5 13.6 16.5 13.6 16.5 13.7 16.5 13.7 16.5 13.7 16.5 13.7 16.5 13.7 16.5 13.7 16.5 13.7 16.5 13.7 16.5 13.8 16.5 13.8 16.5 13.8 16.5 13.8 16.5 13.8 16.5 13.8 16.5 13.8 16.5 13.8 16.5 13.9 16.5 13.9 16.5 13.9 16.5 13.9 16.5 13.9 16.5 13.9 16.5 13.9 16.5 13.9 16.5 14 16.5 14 16.5 14 16.5 14 16.5 14 16.5 14 16.5 14 16.5 14 16.5 14 16.5 14.1 16.5 14.1 16.5 14.1 16.5 14.1 16.5 14.1 16.5 14.1 16.5 14.1 16.5 14.1 16.5 14.2 16.5 14.2 16.5 14.2 16.5 14.2 16.5 14.2 16.5 14.2 16.5 14.2 16.5 14.2 16.5 14.3 16.5 14.3 16.5 14.3 16.5 14.3 16.5 14.3 16.5 14.3 16.5 14.3 16.5 14.3 16.5 14.4 16.5 14.4 16.5 14.4 16.5 14.4 16.5 14.4 16.5 14.4 16.5 14.4 16.5 14.4 16.5 14.5 16.5 14.5 16.5 14.5 16.5 14.5 16.5 14.5 16.5 14.5 16.5 14.5 16.5 14.5 16.5 14.6 16.5 14.6 16.5 14.6 16.5 14.6 16.5 14.6 16.5 14.6 16.5 14.6 16.5 14.6 16.5 14.7 16.5 14.7 16.5 14.7 16.5 14.7 16.5 14.7 16.5 14.7 16.5 14.7 16.5 14.7 16.5 14.8 16.5 14.8 16.5 14.8 16.5 14.8 16.5 14.8 16.5 14.8 16.5 14.8 16.5 14.8 16.5 14.9 16.5 14.9 16.5 14.9 16.5 14.9 16.5 14.9 16.5 14.9 16.5 14.9 16.5 14.9 16.5 15 16.5 15 16.5 15 16.5 15 16.5 15 16.5 15 16.5 15 16.5 15 16.5 15.1 16.5 15.1 16.5 15.1 16.5 15.1 16.5 15.1 16.5 15.1 16.5 15.1 16.5 15.1 16.5 15.2 16.5 15.2 16.5 15.2 16.5 15.2 16.5 15.2 16.5 15.2 16.5 15.2 16.5 15.2 16.5 15.3 16.5 15.3 16.5 15.3 16.5 15.3 16.5 15.3 16.5 15.3 16.5 15.3 16.5 15.3 16.5 15.4 16.5 15.4 16.5 15.4 16.5 15.4 16.5 15.4 16.5 15.4 16.5 15.4 16.5 15.4 16.5 15.5 16.5 15.5 16.5 15.5 16.5 15.5 16.5 15.5 16.5 15.5 16.5 15.5 16.5 15.6 16.5 15.6 16.5 15.6 16.5 15.6 16.5 15.6 16.5 15.6 16.5 15.6 16.5 15.6 16.5 15.7 16.5 15.7 16.5 15.7 16.5 15.7 16.5 15.7 16.5 15.7 16.5 15.7 16.5 15.7 16.5 15.8 16.5 15.8 16.5 15.8 16.5 15.8 16.5 15.8 16.5 15.8 16.5 15.8 16.5 15.8 16.5 15.9 16.5 15.9 16.5 15.9 16.5 15.9 16.5 15.9 16.5 15.9 16.5 15.9 16.5 16 16.5 16 16.5 16 16.5 16 16.5 16 16.5 16 16.5 16 16.5 16 16.5 16.1 16.5 16.1 16.5 16.1 16.5 16.1 16.5 16.1 16.5 16.1 16.5 16.1 16.5 16.1 16.5 16.2 16.5 16.2 16.5 16.2 16.5 16.2 16.5 16.2 16.5 16.2 16.5 16.2 16.5 16.2 16.5 16.3 16.5 16.3 16.5 16.3 16.5 16.3 16.5 16.3 16.5 16.3 16.5 16.3 16.5 16.4 16.5 16.4 16.5 16.4 16.5 16.4 16.5 16.4 16.5 16.4 16.5 16.4 16.5 16.4 16.5 16.5 16.5 16.5 16.5 16.5 16.5 16.5 16.5 16.5 16.5 16.5 16.5 16.5 16.5 16.5 16.5 16.6 16.5 16.6 16.5 16.6 16.5 16.6 16.5 16.6 16.5 16.6 16.5 16.6 16.5 16.7 16.5 16.7 16.5 16.7 16.5 16.7 16.5 16.7 16.5 16.7 16.5 16.7 16.5 16.7 16.5 16.8 16.5 16.8 16.5 16.8 16.5 16.8 16.5 16.8 16.5 16.8 16.5 16.8 16.5 16.8 16.5 16.9 16.5 16.9 16.5 16.9 16.5 16.9 16.5 16.9 16.5 16.9 16.5 16.9 16.5 17 16.5 17 16.5 17 16.5 17 16.5 17 16.5 17 16.5 17 16.5 17 16.5 17.1 16.5 17.1 16.5 17.1 16.5 17.1 16.5 17.1 16.5 17.1 16.5 17.1 16.5 17.1 16.5 17.2 16.5 17.2 16.5 17.2 16.5 17.2 16.5 17.2 16.5 17.2 16.5 17.2 16.5 17.3 16.5 17.3 16.5 17.3 16.5 17.3 16.5 17.3 16.5 17.3 16.5 17.3 16.5 17.3 16.5 17.4 16.5 17.4 16.5 17.4 16.5 17.4 16.5 17.4 16.5 17.4 16.5 17.4 16.5 17.4 16.5 17.5 16.5 17.5 16.5 17.5 16.5 17.5 16.5 17.5 16.5 17.5 16.5 17.5 16.5 17.6 16.5 17.6 16.5 17.6 16.5 17.6 16.5 17.6 16.5 17.6 16.5 17.6 16.5 17.6 16.5 17.7 16.5 17.7 16.5 17.7 16.5 17.7 16.5 17.7 16.5 17.7 16.5 17.7 16.5 17.8 16.5 17.8 16.5 17.8 16.5 17.8 16.5 17.8 16.5 17.8 16.5 17.8 16.5 17.8 16.5 17.9 16.5 17.9 16.5 17.9 16.5 17.9 16.5 17.9 16.5 17.9 16.5 17.9 16.5 17.9 16.5 18 16.5 18 16.5 18 16.5 18 16.5 18 16.5 18 16.5 18 16.5 18.1 16.5 18.1 16.5 18.1 16.5 18.1 16.5 18.1 16.5 18.1 16.5 18.1 16.5 18.1 16.5 18.2 16.5 18.2 16.5 18.2 16.5 18.2 16.5 18.2 16.5 18.2 16.5 18.2 16.5 18.3 16.5 18.3 16.5 18.3 16.5 18.3 16.5 18.3 16.5 18.3 16.5 18.3 16.5 18.3 16.5 18.4 16.5 18.4 16.5 18.4 16.5 18.4 16.5 18.4 16.5 18.4 16.5 18.4 16.5 18.4 16.5 18.5 16.5 18.5 16.5 18.5 16.5 18.5 16.5 18.5 16.5 18.5 16.5 18.5 16.5 18.6 16.5 18.6 16.5 18.6 16.5 18.6 16.5 18.6 16.5 18.6 16.5 18.6 16.5 18.6 16.5 18.7 16.5 18.7 16.5 18.7 16.5 18.7 16.5 18.7 16.5 18.7 16.5 18.7 16.5 18.7 16.5 18.8 16.5 18.8 16.5 18.8 16.5 18.8 16.5 18.8 16.5 18.8 16.5 18.8 16.5 18.9 16.5 18.9 16.5 18.9 16.5 18.9 16.5 18.9 16.5 18.9 16.5 18.9 16.5 18.9 16.5 19 16.5 19 16.5 19 16.5 19 16.5 19 16.5 19 16.5 19 16.5 19 16.5 19.1 16.5 19.1 16.5 19.1 16.5 19.1 16.5 19.1 16.5 19.1 16.5 19.1 16.5 19.2 16.5 19.2 16.5 19.2 16.5 19.2 16.5 19.2 16.5 19.2 16.5 19.2 16.5 19.2 16.5 19.3 16.5 19.3 16.5 19.3 16.5 19.3 16.5 19.3 16.5 19.3 16.5 19.3 16.5 19.3 16.5 19.4 16.5 19.4 16.5 19.4 16.5 19.4 16.5 19.4 16.5 19.4 16.5 19.4 16.5 19.5 16.5 19.5 16.5 19.5 16.5 19.5 16.5 19.5 16.5 19.5 16.5 19.5 16.5 19.5 16.5 19.6 16.5 19.6 16.5 19.6 16.5 19.6 16.5 19.6 16.5 19.6 16.5 19.6 16.5 19.6 16.5 19.7 16.5 19.7 16.5 19.7 16.5 19.7 16.5 19.7 16.5 19.7 16.5 19.7 16.5 19.8 16.5 19.8 16.5 19.8 16.5 19.8 16.5 19.8 16.5 19.8 16.5 19.8 16.5 19.8 16.5 19.9 16.5 19.9 16.5 19.9 16.5 19.9 16.5 19.9 16.5 19.9 16.5 19.9 16.5 19.9 16.5 20 16.5 20 16.5 20 16.5 20 16.5 20 16.5 20 16.5 20 16.5 20 16.5 20.1 16.5 20.1 16.5 20.1 16.5 20.1 16.5 20.1 16.5 20.1 16.5 20.1 16.5 20.2 16.5 20.2 16.5 20.2 16.5 20.2 16.5 20.2 16.5 20.2 16.5 20.2 16.5 20.2 16.5 20.3 16.5 20.3 16.5 20.3 16.5 20.3 16.5 20.3 16.5 20.3 16.5 20.3 16.5 20.3 16.5 20.4 16.5 20.4 16.5 20.4 16.5 20.4 16.5 20.4 16.5 20.4 16.5 20.4 16.5 20.4 16.5 20.5 16.5 20.5 16.5 20.5 16.5 20.5 16.5 20.5 16.5 20.5 16.5 20.5 16.5 20.5 16.5 20.6 16.5 20.6 16.5 20.6 16.5 20.6 16.5 20.6 16.5 20.6 16.5 20.6 16.5 20.6 16.5 20.7 16.5 20.7 16.5 20.7 16.5 20.7 16.5 20.7 16.5 20.7 16.5 20.7 16.5 20.7 16.5 20.8 16.5 20.8 16.5 20.8 16.5 20.8 16.5 20.8 16.5 20.8 16.5 20.8 16.5 20.9 16.5 20.9 16.5 20.9 16.5 20.9 16.5 20.9 16.5 20.9 16.5 20.9 16.5 20.9 16.5 21 16.5 21 16.5 21 16.5 21 16.5 21 16.5 21 16.5 21 16.5 21 16.5 21.1 16.5 21.1 16.5 21.1 16.5 21.1 16.5 21.1 16.5 21.1 16.5 21.1 16.5 21.1 16.5 21.2 16.5 21.2 16.5 21.2 16.5 21.2 16.5 21.2 16.5 21.2 16.5 21.2 16.5 21.2 16.5 21.3 16.5 21.3 16.5 21.3 16.5 21.3 16.5 21.3 16.5 21.3 16.5 21.3 16.5 21.3 16.5 21.4 16.5 21.4 16.5 21.4 16.5 21.4 16.5 21.4 16.5 21.4 16.5 21.4 16.5 21.4 16.5 21.4 16.5 21.5 16.5 21.5 16.5 21.5 16.5 21.5 16.5 21.5 16.5 21.5 16.5 21.5 16.5 21.5 16.5 21.6 16.5 21.6 16.5 21.6 16.5 21.6 16.5 21.6 16.5 21.6 16.5 21.6 16.5 21.6 16.5 21.7 16.5 21.7 16.5 21.7 16.5 21.7 16.5 21.7 16.5 21.7 16.5 21.7 16.5 21.7 16.5 21.8 16.5 21.8 16.5 21.8 16.5 21.8 16.5 21.8 16.5 21.8 16.5 21.8 16.5 21.8 16.5 21.9 16.5 21.9 16.5 21.9 16.5 21.9 16.5 21.9 16.5 21.9 16.5 21.9 16.5 21.9 16.5 22 16.5 22 16.5 22 16.5 22 16.5 22 16.5 22 16.5 22 16.5 22 16.5 22 16.5 22.1 16.5 22.1 16.5 22.1 16.5 22.1 16.5 22.1 16.5 22.1 16.5 22.1 16.5 22.1 16.5 22.2 16.5 22.2 16.5 22.2 16.5 22.2 16.5 22.2 16.5 22.2 16.5 22.2 16.5 22.2 16.5 22.3 16.5 22.3 16.5 22.3 16.5 22.3 16.5 22.3 16.5 22.3 16.5 22.3 16.5 22.3 16.5 22.3 16.5 22.4 16.5 22.4 16.5 22.4 16.5 22.4 16.5 22.4 16.5 22.4 16.5 22.4 16.5 22.4 16.5 22.5 16.5 22.5 16.5 22.5 16.5 22.5 16.5 22.5 16.5 22.5 16.5 22.5 16.5 22.5 16.5 22.5 16.5 22.6 16.5 22.6 16.5 22.6 16.5 22.6 16.5 22.6 16.5 22.6 16.5 22.6 16.5 22.6 16.5 22.7 16.5 22.7 16.5 22.7 16.5 22.7 16.5 22.7 16.5 22.7 16.5 22.7 16.5 22.7 16.5 22.7 16.5 22.8 16.5 22.8 16.5 22.8 16.5 22.8 16.5 22.8 16.5 22.8 16.5 22.8 16.5 22.8 16.5 22.9 16.5 22.9 16.5 22.9 16.5 22.9 16.5 22.9 16.5 22.9 16.5 22.9 16.5 22.9 16.5 22.9 16.5 23 16.5 23 16.5 23 16.5 23 16.5 23 16.5V15.5C23 15.5 23 15.5 23 15.5 23 15.5 22.9 15.5 22.9 15.5 22.9 15.5 22.9 15.5 22.9 15.5 22.9 15.5 22.9 15.5 22.9 15.5 22.9 15.5 22.8 15.5 22.8 15.5 22.8 15.5 22.8 15.5 22.8 15.5 22.8 15.5 22.8 15.5 22.8 15.5 22.7 15.5 22.7 15.5 22.7 15.5 22.7 15.5 22.7 15.5 22.7 15.5 22.7 15.5 22.7 15.5 22.7 15.5 22.6 15.5 22.6 15.5 22.6 15.5 22.6 15.5 22.6 15.5 22.6 15.5 22.6 15.5 22.6 15.5 22.5 15.5 22.5 15.5 22.5 15.5 22.5 15.5 22.5 15.5 22.5 15.5 22.5 15.5 22.5 15.5 22.5 15.5 22.4 15.5 22.4 15.5 22.4 15.5 22.4 15.5 22.4 15.5 22.4 15.5 22.4 15.5 22.4 15.5 22.3 15.5 22.3 15.5 22.3 15.5 22.3 15.5 22.3 15.5 22.3 15.5 22.3 15.5 22.3 15.5 22.3 15.5 22.2 15.5 22.2 15.5 22.2 15.5 22.2 15.5 22.2 15.5 22.2 15.5 22.2 15.5 22.2 15.5 22.1 15.5 22.1 15.5 22.1 15.5 22.1 15.5 22.1 15.5 22.1 15.5 22.1 15.5 22.1 15.5 22 15.5 22 15.5 22 15.5 22 15.5 22 15.5 22 15.5 22 15.5 22 15.5 22 15.5 21.9 15.5 21.9 15.5 21.9 15.5 21.9 15.5 21.9 15.5 21.9 15.5 21.9 15.5 21.9 15.5 21.8 15.5 21.8 15.5 21.8 15.5 21.8 15.5 21.8 15.5 21.8 15.5 21.8 15.5 21.8 15.5 21.7 15.5 21.7 15.5 21.7 15.5 21.7 15.5 21.7 15.5 21.7 15.5 21.7 15.5 21.7 15.5 21.6 15.5 21.6 15.5 21.6 15.5 21.6 15.5 21.6 15.5 21.6 15.5 21.6 15.5 21.6 15.5 21.5 15.5 21.5 15.5 21.5 15.5 21.5 15.5 21.5 15.5 21.5 15.5 21.5 15.5 21.5 15.5 21.4 15.5 21.4 15.5 21.4 15.5 21.4 15.5 21.4 15.5 21.4 15.5 21.4 15.5 21.4 15.5 21.4 15.5 21.3 15.5 21.3 15.5 21.3 15.5 21.3 15.5 21.3 15.5 21.3 15.5 21.3 15.5 21.3 15.5 21.2 15.5 21.2 15.5 21.2 15.5 21.2 15.5 21.2 15.5 21.2 15.5 21.2 15.5 21.2 15.5 21.1 15.5 21.1 15.5 21.1 15.5 21.1 15.5 21.1 15.5 21.1 15.5 21.1 15.5 21.1 15.5 21 15.5 21 15.5 21 15.5 21 15.5 21 15.5 21 15.5 21 15.5 21 15.5 20.9 15.5 20.9 15.5 20.9 15.5 20.9 15.5 20.9 15.5 20.9 15.5 20.9 15.5 20.9 15.5 20.8 15.5 20.8 15.5 20.8 15.5 20.8 15.5 20.8 15.5 20.8 15.5 20.8 15.5 20.7 15.5 20.7 15.5 20.7 15.5 20.7 15.5 20.7 15.5 20.7 15.5 20.7 15.5 20.7 15.5 20.6 15.5 20.6 15.5 20.6 15.5 20.6 15.5 20.6 15.5 20.6 15.5 20.6 15.5 20.6 15.5 20.5 15.5 20.5 15.5 20.5 15.5 20.5 15.5 20.5 15.5 20.5 15.5 20.5 15.5 20.5 15.5 20.4 15.5 20.4 15.5 20.4 15.5 20.4 15.5 20.4 15.5 20.4 15.5 20.4 15.5 20.4 15.5 20.3 15.5 20.3 15.5 20.3 15.5 20.3 15.5 20.3 15.5 20.3 15.5 20.3 15.5 20.3 15.5 20.2 15.5 20.2 15.5 20.2 15.5 20.2 15.5 20.2 15.5 20.2 15.5 20.2 15.5 20.2 15.5 20.1 15.5 20.1 15.5 20.1 15.5 20.1 15.5 20.1 15.5 20.1 15.5 20.1 15.5 20 15.5 20 15.5 20 15.5 20 15.5 20 15.5 20 15.5 20 15.5 20 15.5 19.9 15.5 19.9 15.5 19.9 15.5 19.9 15.5 19.9 15.5 19.9 15.5 19.9 15.5 19.9 15.5 19.8 15.5 19.8 15.5 19.8 15.5 19.8 15.5 19.8 15.5 19.8 15.5 19.8 15.5 19.8 15.5 19.7 15.5 19.7 15.5 19.7 15.5 19.7 15.5 19.7 15.5 19.7 15.5 19.7 15.5 19.6 15.5 19.6 15.5 19.6 15.5 19.6 15.5 19.6 15.5 19.6 15.5 19.6 15.5 19.6 15.5 19.5 15.5 19.5 15.5 19.5 15.5 19.5 15.5 19.5 15.5 19.5 15.5 19.5 15.5 19.5 15.5 19.4 15.5 19.4 15.5 19.4 15.5 19.4 15.5 19.4 15.5 19.4 15.5 19.4 15.5 19.3 15.5 19.3 15.5 19.3 15.5 19.3 15.5 19.3 15.5 19.3 15.5 19.3 15.5 19.3 15.5 19.2 15.5 19.2 15.5 19.2 15.5 19.2 15.5 19.2 15.5 19.2 15.5 19.2 15.5 19.2 15.5 19.1 15.5 19.1 15.5 19.1 15.5 19.1 15.5 19.1 15.5 19.1 15.5 19.1 15.5 19 15.5 19 15.5 19 15.5 19 15.5 19 15.5 19 15.5 19 15.5 19 15.5 18.9 15.5 18.9 15.5 18.9 15.5 18.9 15.5 18.9 15.5 18.9 15.5 18.9 15.5 18.9 15.5 18.8 15.5 18.8 15.5 18.8 15.5 18.8 15.5 18.8 15.5 18.8 15.5 18.8 15.5 18.7 15.5 18.7 15.5 18.7 15.5 18.7 15.5 18.7 15.5 18.7 15.5 18.7 15.5 18.7 15.5 18.6 15.5 18.6 15.5 18.6 15.5 18.6 15.5 18.6 15.5 18.6 15.5 18.6 15.5 18.6 15.5 18.5 15.5 18.5 15.5 18.5 15.5 18.5 15.5 18.5 15.5 18.5 15.5 18.5 15.5 18.4 15.5 18.4 15.5 18.4 15.5 18.4 15.5 18.4 15.5 18.4 15.5 18.4 15.5 18.4 15.5 18.3 15.5 18.3 15.5 18.3 15.5 18.3 15.5 18.3 15.5 18.3 15.5 18.3 15.5 18.3 15.5 18.2 15.5 18.2 15.5 18.2 15.5 18.2 15.5 18.2 15.5 18.2 15.5 18.2 15.5 18.1 15.5 18.1 15.5 18.1 15.5 18.1 15.5 18.1 15.5 18.1 15.5 18.1 15.5 18.1 15.5 18 15.5 18 15.5 18 15.5 18 15.5 18 15.5 18 15.5 18 15.5 17.9 15.5 17.9 15.5 17.9 15.5 17.9 15.5 17.9 15.5 17.9 15.5 17.9 15.5 17.9 15.5 17.8 15.5 17.8 15.5 17.8 15.5 17.8 15.5 17.8 15.5 17.8 15.5 17.8 15.5 17.8 15.5 17.7 15.5 17.7 15.5 17.7 15.5 17.7 15.5 17.7 15.5 17.7 15.5 17.7 15.5 17.6 15.5 17.6 15.5 17.6 15.5 17.6 15.5 17.6 15.5 17.6 15.5 17.6 15.5 17.6 15.5 17.5 15.5 17.5 15.5 17.5 15.5 17.5 15.5 17.5 15.5 17.5 15.5 17.5 15.5 17.4 15.5 17.4 15.5 17.4 15.5 17.4 15.5 17.4 15.5 17.4 15.5 17.4 15.5 17.4 15.5 17.3 15.5 17.3 15.5 17.3 15.5 17.3 15.5 17.3 15.5 17.3 15.5 17.3 15.5 17.3 15.5 17.2 15.5 17.2 15.5 17.2 15.5 17.2 15.5 17.2 15.5 17.2 15.5 17.2 15.5 17.1 15.5 17.1 15.5 17.1 15.5 17.1 15.5 17.1 15.5 17.1 15.5 17.1 15.5 17.1 15.5 17 15.5 17 15.5 17 15.5 17 15.5 17 15.5 17 15.5 17 15.5 17 15.5 16.9 15.5 16.9 15.5 16.9 15.5 16.9 15.5 16.9 15.5 16.9 15.5 16.9 15.5 16.8 15.5 16.8 15.5 16.8 15.5 16.8 15.5 16.8 15.5 16.8 15.5 16.8 15.5 16.8 15.5 16.7 15.5 16.7 15.5 16.7 15.5 16.7 15.5 16.7 15.5 16.7 15.5 16.7 15.5 16.7 15.5 16.6 15.5 16.6 15.5 16.6 15.5 16.6 15.5 16.6 15.5 16.6 15.5 16.6 15.5 16.5 15.5 16.5 15.5 16.5 15.5 16.5 15.5 16.5 15.5 16.5 15.5 16.5 15.5 16.5 15.5 16.4 15.5 16.4 15.5 16.4 15.5 16.4 15.5 16.4 15.5 16.4 15.5 16.4 15.5 16.4 15.5 16.3 15.5 16.3 15.5 16.3 15.5 16.3 15.5 16.3 15.5 16.3 15.5 16.3 15.5 16.2 15.5 16.2 15.5 16.2 15.5 16.2 15.5 16.2 15.5 16.2 15.5 16.2 15.5 16.2 15.5 16.1 15.5 16.1 15.5 16.1 15.5 16.1 15.5 16.1 15.5 16.1 15.5 16.1 15.5 16.1 15.5 16 15.5 16 15.5 16 15.5 16 15.5 16 15.5 16 15.5 16 15.5 16 15.5 15.9 15.5 15.9 15.5 15.9 15.5 15.9 15.5 15.9 15.5 15.9 15.5 15.9 15.5 15.8 15.5 15.8 15.5 15.8 15.5 15.8 15.5 15.8 15.5 15.8 15.5 15.8 15.5 15.8 15.5 15.7 15.5 15.7 15.5 15.7 15.5 15.7 15.5 15.7 15.5 15.7 15.5 15.7 15.5 15.7 15.5 15.6 15.5 15.6 15.5 15.6 15.5 15.6 15.5 15.6 15.5 15.6 15.5 15.6 15.5 15.6 15.5 15.5 15.5 15.5 15.5 15.5 15.5 15.5 15.5 15.5 15.5 15.5 15.5 15.5 15.5 15.4 15.5 15.4 15.5 15.4 15.5 15.4 15.5 15.4 15.5 15.4 15.5 15.4 15.5 15.4 15.5 15.3 15.5 15.3 15.5 15.3 15.5 15.3 15.5 15.3 15.5 15.3 15.5 15.3 15.5 15.3 15.5 15.2 15.5 15.2 15.5 15.2 15.5 15.2 15.5 15.2 15.5 15.2 15.5 15.2 15.5 15.2 15.5 15.1 15.5 15.1 15.5 15.1 15.5 15.1 15.5 15.1 15.5 15.1 15.5 15.1 15.5 15.1 15.5 15 15.5 15 15.5 15 15.5 15 15.5 15 15.5 15 15.5 15 15.5 15 15.5 14.9 15.5 14.9 15.5 14.9 15.5 14.9 15.5 14.9 15.5 14.9 15.5 14.9 15.5 14.9 15.5 14.8 15.5 14.8 15.5 14.8 15.5 14.8 15.5 14.8 15.5 14.8 15.5 14.8 15.5 14.8 15.5 14.7 15.5 14.7 15.5 14.7 15.5 14.7 15.5 14.7 15.5 14.7 15.5 14.7 15.5 14.7 15.5 14.6 15.5 14.6 15.5 14.6 15.5 14.6 15.5 14.6 15.5 14.6 15.5 14.6 15.5 14.6 15.5 14.5 15.5 14.5 15.5 14.5 15.5 14.5 15.5 14.5 15.5 14.5 15.5 14.5 15.5 14.5 15.5 14.4 15.5 14.4 15.5 14.4 15.5 14.4 15.5 14.4 15.5 14.4 15.5 14.4 15.5 14.4 15.5 14.3 15.5 14.3 15.5 14.3 15.5 14.3 15.5 14.3 15.5 14.3 15.5 14.3 15.5 14.3 15.5 14.2 15.5 14.2 15.5 14.2 15.5 14.2 15.5 14.2 15.5 14.2 15.5 14.2 15.5 14.2 15.5 14.1 15.5 14.1 15.5 14.1 15.5 14.1 15.5 14.1 15.5 14.1 15.5 14.1 15.5 14.1 15.5 14 15.5 14 15.5 14 15.5 14 15.5 14 15.5 14 15.5 14 15.5 14 15.5 14 15.5 13.9 15.5 13.9 15.5 13.9 15.5 13.9 15.5 13.9 15.5 13.9 15.5 13.9 15.5 13.9 15.5 13.8 15.5 13.8 15.5 13.8 15.5 13.8 15.5 13.8 15.5 13.8 15.5 13.8 15.5 13.8 15.5 13.7 15.5 13.7 15.5 13.7 15.5 13.7 15.5 13.7 15.5 13.7 15.5 13.7 15.5 13.7 15.5 13.6 15.5 13.6 15.5 13.6 15.5 13.6 15.5 13.6 15.5 13.6 15.5 13.6 15.5 13.6 15.5 13.6 15.5 13.5 15.5 13.5 15.5 13.5 15.5 13.5 15.5 13.5 15.5 13.5 15.5 13.5 15.5 13.5 15.5 13.4 15.5 13.4 15.5 13.4 15.5 13.4 15.5 13.4 15.5 13.4 15.5 13.4 15.5 13.4 15.5 13.4 15.5 13.3 15.5 13.3 15.5 13.3 15.5 13.3 15.5 13.3 15.5 13.3 15.5 13.3 15.5 13.3 15.5 13.2 15.5 13.2 15.5 13.2 15.5 13.2 15.5 13.2 15.5 13.2 15.5 13.2 15.5 13.2 15.5 13.2 15.5 13.1 15.5 13.1 15.5 13.1 15.5 13.1 15.5 13.1 15.5 13.1 15.5 13.1 15.5 13.1 15.5 13 15.5 13 15.5 13 15.5 13 15.5 13 15.5 13 15.5 13 15.5 13 15.5 13 15.5 12.9 15.5 12.9 15.5 12.9 15.5 12.9 15.5 12.9 15.5 12.9 15.5 12.9 15.5 12.9 15.5 12.8 15.5 12.8 15.5 12.8 15.5 12.8 15.5 12.8 15.5 12.8 15.5 12.8 15.5 12.8 15.5 12.8 15.5 12.7 15.5 12.7 15.5 12.7 15.5 12.7 15.5 12.7 15.5 12.7 15.5 12.7 15.5 12.7 15.5 12.7 15.5 12.6 15.5 12.6 15.5 12.6 15.5 12.6 15.5 12.6 15.5 12.6 15.5 12.6 15.5 12.6 15.5 12.6 15.5 12.5 15.5 12.5 15.5 12.5 15.5 12.5 15.5 12.5 15.5 12.5 15.5 12.5 15.5 12.5 15.5 12.5 15.5 12.4 15.5 12.4 15.5 12.4 15.5 12.4 15.5 12.4 15.5 12.4 15.5 12.4 15.5 12.4 15.5 12.4 15.5 12.3 15.5 12.3 15.5 12.3 15.5 12.3 15.5 12.3 15.5 12.3 15.5 12.3 15.5 12.3 15.5 12.3 15.5 12.2 15.5 12.2 15.5 12.2 15.5 12.2 15.5 12.2 15.5 12.2 15.5 12.2 15.5 12.2 15.5 12.2 15.5 12.1 15.5 12.1 15.5 12.1 15.5 12.1 15.5 12.1 15.5 12.1 15.5 12.1 15.5 12.1 15.5 12.1 15.5 12 15.5 12 15.5 12 15.5 12 15.5 12 15.5 12 15.5 12 15.5 12 15.5 12 15.5 11.9 15.5 11.9 15.5 11.9 15.5 11.9 15.5 11.9 15.5 11.9 15.5 11.9 15.5 11.9 15.5 11.9 15.5 11.9 15.5 11.8 15.5 11.8 15.5 11.8 15.5 11.8 15.5 11.8 15.5 11.8 15.5 11.8 15.5 11.8 15.5 11.8 15.5 11.7 15.5 11.7 15.5 11.7 15.5 11.7 15.5 11.7 15.5 11.7 15.5 11.7 15.5 11.7 15.5 11.7 15.5 11.7 15.5 11.6 15.5 11.6 15.5 11.6 15.5 11.6 15.5 11.6 15.5 11.6 15.5 11.6 15.5 11.6 15.5 11.6 15.5 11.5 15.5 11.5 15.5 11.5 15.5 11.5 15.5 11.5 15.5 11.5 15.5 11.5 15.5 11.5 15.5 11.5 15.5 11.5 15.5 11.4 15.5 11.4 15.5 11.4 15.5 11.4 15.5 11.4 15.5 11.4 15.5 11.4 15.5 11.4 15.5 11.4 15.5 11.4 15.5 11.3 15.5 11.3 15.5 11.3 15.5 11.3 15.5 11.3 15.5 11.3 15.5 11.3 15.5 11.3 15.5 11.3 15.5 11.3 15.5 11.2 15.5 11.2 15.5 11.2 15.5 11.2 15.5 11.2 15.5 11.2 15.5 11.2 15.5 11.2 15.5 11.2 15.5 11.2 15.5 11.1 15.5 11.1 15.5 11.1 15.5 11.1 15.5 11.1 15.5 11.1 15.5 11.1 15.5 11.1 15.5 11.1 15.5 11.1 15.5 11 15.5 11 15.5 11 15.5 11 15.5 11 15.5 11 15.5 11 15.5 11 15.5 11 15.5 11 15.5 10.9 15.5 10.9 15.5 10.9 15.5 10.9 15.5 10.9 15.5 10.9 15.5 10.9 15.5 10.9 15.5 10.9 15.5 10.9 15.5 10.8 15.5 10.8 15.5 10.8 15.5 10.8 15.5 10.8 15.5 10.8 15.5 10.8 15.5 10.8 15.5 10.8 15.5 10.8 15.5 10.8 15.5 10.7 15.5 10.7 15.5 10.7 15.5 10.7 15.5 10.7 15.5 10.7 15.5 10.7 15.5 10.7 15.5 10.7 15.5 10.7 15.5 10.7 15.5 10.6 15.5 10.6 15.5 10.6 15.5 10.6 15.5 10.6 15.5 10.6 15.5 10.6 15.5 10.6 15.5 10.6 15.5 10.6 15.5 10.6 15.5 10.5 15.5 10.5 15.5 10.5 15.5 10.5 15.5 10.5 15.5 10.5 15.5 10.5 15.5 10.5 15.5 10.5 15.5 10.5 15.5 10.5 15.5 10.4 15.5 10.4 15.5 10.4 15.5 10.4 15.5 10.4 15.5 10.4 15.5 10.4 15.5 10.4 15.5 10.4 15.5 10.4 15.5 10.4 15.5 10.3 15.5 10.3 15.5 10.3 15.5 10.3 15.5 10.3 15.5 10.3 15.5 10.3 15.5 10.3 15.5 10.3 15.5 10.3 15.5 10.3 15.5 10.2 15.5 10.2 15.5 10.2 15.5 10.2 15.5 10.2 15.5 10.2 15.5 10.2 15.5 10.2 15.5 10.2 15.5 10.2 15.5 10.2 15.5 10.2 15.5 10.1 15.5 10.1 15.5 10.1 15.5 10.1 15.5 10.1 15.5 10.1 15.5 10.1 15.5 10.1 15.5 10.1 15.5 10.1 15.5 10.1 15.5 10 15.5 10 15.5 10 15.5 10 15.5 10 15.5 10 15.5 10 15.5 10 15.5 10 15.5 10 15.5 10 15.5 10 15.5 10 15.5 9.9 15.5 9.9 15.5 9.9 15.5 9.9 15.5 9.9 15.5 9.9 15.5 9.9 15.5 9.9 15.5 9.9 15.5 9.9 15.5 9.9 15.5 9.9 15.5 9.8 15.5 9.8 15.5 9.8 15.5 9.8 15.5 9.8 15.5 9.8 15.5 9.8 15.5 9.8 15.5 9.8 15.5 9.8 15.5 9.8 15.5 9.8 15.5 9.7 15.5 9.7 15.5 9.7 15.5 9.7 15.5 9.7 15.5 9.7 15.5 9.7 15.5 9.7 15.5 9.7 15.5 9.7 15.5 9.7 15.5 9.7 15.5 9.7 15.5 9.6 15.5 9.6 15.5 9.6 15.5 9.6 15.5 9.6 15.5 9.6 15.5 9.6 15.5 9.6 15.5 9.6 15.5 9.6 15.5 9.6 15.5 9.6 15.5 9.6 15.5 9.5 15.5 9.5 15.5 9.5 15.5 9.5 15.5 9.5 15.5 9.5 15.5 9.5 15.5 9.5 15.5 9.5 15.5 9.5 15.5 9.5 15.5 9.5 15.5 9.5 15.5 9.5 15.5 9.4 15.5 9.4 15.5 9.4 15.5 9.4 15.5 9.4 15.5 9.4 15.5 9.4 15.5 9.4 15.5 9.4 15.5 9.4 15.5 9.4 15.5 9.4 15.5 9.4 15.5 9.4 15.5 9.3 15.5 9.3 15.5 9.3 15.5 9.3 15.5 9.3 15.5 9.3 15.5 9.3 15.5 9.3 15.5 9.3 15.5 9.3 15.5 9.3 15.5 9.3 15.5 9.3 15.5 9.3 15.5 9.2 15.5 9.2 15.5 9.2 15.5 9.2 15.5 9.2 15.5 9.2 15.5 9.2 15.5 9.2 15.5 9.2 15.5 9.2 15.5 9.2 15.5 9.2 15.5 9.2 15.5 9.2 15.5 9.2 15.5 9.1 15.5 9.1 15.5 9.1 15.5 9.1 15.5 9.1 15.5 9.1 15.5 9.1 15.5 9.1 15.5 9.1 15.5 9.1 15.5 9.1 15.5 9.1 15.5 9.1 15.5 9.1 15.5 9.1 15.5 9.1 15.5 9 15.5 9 15.5 9 15.5 9 15.5 9 15.5 9 15.5 9 15.5 9 15.5 9 15.5 9 15.5 9 15.5 9 15.5 9 15.5 9 15.5 9 15.5 9 15.5 8.9 15.5 8.9 15.5 8.9 15.5 8.9 15.5 8.9 15.5 8.9 15.5 8.9 15.5 8.9 15.5 8.9 15.5 8.9 15.5 8.9 15.5 8.9 15.5 8.9 15.5 8.9 15.5 8.9 15.5 8.9 15.5 8.9 15.5 8.8 15.5 8.8 15.5 8.8 15.5 8.8 15.5 8.8 15.5 8.8 15.5 8.8 15.5 8.8 15.5 8.8 15.5 8.8 15.5 8.8 15.5 8.8 15.5 8.8 15.5 8.8 15.5 8.8 15.5 8.8 15.5 8.8 15.5 8.8 15.5 8.7 15.5 8.7 15.5 8.7 15.5 8.7 15.5 8.7 15.5 8.7 15.5 8.7 15.5 8.7 15.5 8.7 15.5 8.7 15.5 8.7 15.5 8.7 15.5 8.7 15.5 8.7 15.5 8.7 15.5 8.7 15.5 8.7 15.5 8.7 15.5 8.7 15.5 8.6 15.5 8.6 15.5 8.6 15.5 8.6 15.5 8.6 15.5 8.6 15.5 8.6 15.5 8.6 15.5 8.6 15.5 8.6 15.5 8.6 15.5 8.6 15.5 8.6 15.5 8.6 15.5 8.6 15.5 8.6 15.5 8.6 15.5 8.6 15.5 8.6 15.5 8.6 15.5 8.5 15.5 8.5 15.5 8.5 15.5 8.5 15.5 8.5 15.5 8.5 15.5 8.5 15.5 8.5 15.5 8.5 15.5 8.5 15.5 8.5 15.5 8.5 15.5 8.5 15.5 8.5 15.5 8.5 15.5 8.5 15.5 8.5 15.5 8.5 15.5 8.5 15.5 8.5 15.5 8.5 15.5 8.5 15.5 8.5 15.5 8.4 15.5 8.4 15.5 8.4 15.5 8.4 15.5 8.4 15.5 8.4 15.5 8.4 15.5 8.4 15.5 8.4 15.5 8.4 15.5 8.4 15.5 8.4 15.5 8.4 15.5 8.4 15.5 8.4 15.5 8.4 15.5 8.4 15.5 8.4 15.5 8.4 15.5 8.4 15.5 8.4 15.5 8.4 15.5 8.4 15.5 8.4 15.5 8.3 15.5 8.3 15.5 8.3 15.5 8.3 15.5 8.3 15.5 8.3 15.5 8.3 15.5 8.3 15.5 8.3 15.5 8.3 15.5 8.3 15.5 8.3 15.5 8.3 15.5 8.3 15.5 8.3 15.5 8.3 15.5 8.3 15.5 8.3 15.5 8.3 15.5 8.3 15.5 8.3 15.5 8.3 15.5 8.3 15.5 8.3 15.5 8.3 15.5 8.3 15.5 8.3 15.5 8.3 15.5 8.2 15.5 8.2 15.5 8.2 15.5 8.2 15.5 8.2 15.5 8.2 15.5 8.2 15.5 8.2 15.5 8.2 15.5 8.2 15.5 8.2 15.5 8.2 15.5 8.2 15.5 8.2 15.5 8.2 15.5 8.2 15.5 8.2 15.5 8.2 15.5 8.2 15.5 8.2 15.5 8.2 15.5 8.2 15.5 8.2 15.5 8.2 15.5 8.2 15.5 8.2 15.5 8.2 15.5 8.2 15.5 8.2 15.5 8.2 15.5 8.2 15.5 8.2 15.5 8.2 15.5 8.2 15.5 8.2 15.5 8.1 15.5 8.1 15.5 8.1 15.5 8.1 15.5 8.1 15.5 8.1 15.5 8.1 15.5 8.1 15.5 8.1 15.5 8.1 15.5 8.1 15.5 8.1 15.5 8.1 15.5 8.1 15.5 8.1 15.5 8.1 15.5 8.1 15.5 8.1 15.5 8.1 15.5 8.1 15.5 8.1 15.5 8.1 15.5 8.1 15.5 8.1 15.5 8.1 15.5 8.1 15.5 8.1 15.5 8.1 15.5 8.1 15.5 8.1 15.5 8.1 15.5 8.1 15.5 8.1 15.5 8.1 15.5 8.1 15.5 8.1 15.5 8.1 15.5 8.1 15.5 8.1 15.5 8.1 15.5 8.1 15.5 8.1 15.5 8.1 15.5 8.1 15.5 8.1 15.5 8.1 15.5 8.1 15.5 8.1 15.5 8.1 15.5 8 15.5 8 15.5 8 15.5 8 15.5 8 15.5 8 15.5 8 15.5 8 15.5 8 15.5 8 15.5 8 15.5 8 15.5 8 15.5 8 15.5 8 15.5 8 15.5 8 15.5 8 15.5 8 15.5 8 15.5 8 15.5 8 15.5 8 15.5 8 15.5 8 15.5 8 15.5 8 15.5 8 15.5 8 15.5 8 15.5 8 15.5 8 15.5 8 15.5 8 15.5 8 15.5 8 15.5 8 15.5 8 15.5 8 15.5 8 15.5 8 15.5 8 15.5 8 15.5 8 15.5 8 15.5 8 15.5 8 15.5 8 15.5 8 15.5 8 15.5 8 15.5 8 15.5 8 15.5 8 15.5 8 15.5 8 15.5 8 15.5 8 15.5 8 15.5 8 15.5 8 15.5 8 15.5 8 15.5 8 15.5 8 15.5 8 15.5 8 16ZM23.5 26.5V20H22.5V26.5H23.5ZM23 20C23.5 20 23.5 20 23.5 20 23.5 20 23.5 20 23.5 20 23.5 20 23.5 20 23.5 20 23.5 20 23.5 20 23.5 20 23.5 20 23.5 20 23.5 20 23.5 20 23.5 20 23.5 20 23.5 20 23.5 20 23.5 20 23.5 20 23.5 20 23.5 20 23.5 20 23.5 20 23.5 20 23.5 20 23.5 20 23.5 20 23.5 20 23.5 20 23.5 20 23.5 20 23.5 20 23.5 20 23.5 20 23.5 20 23.5 20 23.5 20 23.5 20 23.5 20 23.5 20 23.5 20 23.5 20 23.5 20 23.5 20 23.5 20 23.5 20 23.5 20 23.5 20 23.5 20 23.5 20 23.5 20 23.5 20 23.5 20 23.5 20 23.5 20 23.5 20 23.5 20 23.5 20 23.5 20 23.5 20 23.5 20 23.5 20 23.5 20 23.5 20 23.5 20 23.5 20 23.5 20 23.5 20 23.5 20 23.5 20 23.5 20 23.5 20 23.5 20 23.5 20 23.5 20 23.5 20 23.5 20 23.5 20 23.5 20 23.5 20 23.5 20 23.5 20 23.5 20 23.5 20 23.5 20 23.5 20 23.5 20 23.5 20 23.5 20 23.5 20 23.5 20 23.5 20 23.5 20 23.5 20 23.5 20 23.5 20 23.5 20 23.5 20 23.5 20 23.5 20 23.5 20 23.5 20 23.5 20 23.5 20 23.5 20 23.5 20 23.5 20 23.5 20 23.5 20 23.5 20 23.5 20 23.5 20 23.5 20 23.5 20 23.5 20 23.5 20 23.5 20 23.5 20 23.5 20 23.5 20 23.5 20 23.5 20 23.5 20 23.5 20 23.5 20 23.5 20 23.5 19.9 23.5 19.9 23.5 19.9 23.5 19.9 23.5 19.9 23.5 19.9 23.5 19.9 23.5 19.9 23.5 19.9 23.5 19.9 23.5 19.9 23.5 19.9 23.5 19.9 23.5 19.9 23.5 19.9 23.5 19.9 23.5 19.9 23.5 19.9 23.5 19.9 23.5 19.9 23.5 19.9 23.5 19.9 23.5 19.9 23.5 19.9 23.5 19.9 23.5 19.9 23.5 19.9 23.5 19.9 23.5 19.9 23.5 19.9 23.5 19.9 23.5 19.9 23.5 19.9 23.5 19.9 23.5 19.9 23.5 19.9 23.5 19.9 23.5 19.9 23.5 19.9 23.5 19.9 23.5 19.9 23.5 19.9 23.5 19.9 23.5 19.9 23.5 19.9 23.5 19.9 23.5 19.9 23.5 19.9 23.5 19.9 23.5 19.9 23.5 19.9 23.5 19.9 23.5 19.9 23.5 19.9 23.5 19.9 23.5 19.9 23.5 19.9 23.5 19.9 23.5 19.9 23.5 19.9 23.5 19.9 23.5 19.9 23.5 19.9 23.5 19.9 23.5 19.9 23.5 19.9 23.5 19.9 23.5 19.9 23.5 19.9 23.5 19.9 23.5 19.9 23.5 19.9 23.5 19.9 23.5 19.9 23.5 19.9 23.5 19.9 23.5 19.9 23.5 19.9 23.5 19.9 23.5 19.9 23.5 19.9 23.5 19.9 23.5 19.9 23.5 19.9 23.5 19.9 23.5 19.9 23.5 19.9 23.5 19.9 23.5 19.9 23.5 19.9 23.5 19.9 23.5 19.9 23.5 19.9 23.5 19.9 23.5 19.9 23.5 19.9 23.5 19.9 23.5 19.9 23.5 19.8 23.5 19.8 23.5 19.8 23.5 19.8 23.5 19.8 23.5 19.8 23.5 19.8 23.5 19.8 23.5 19.8 23.5 19.8 23.5 19.8 23.5 19.8 23.5 19.8 23.5 19.8 23.5 19.8 23.5 19.8 23.5 19.8 23.5 19.8 23.5 19.8 23.5 19.8 23.5 19.8 23.5 19.8 23.5 19.8 23.5 19.8 23.5 19.8 23.5 19.8 23.5 19.8 23.5 19.8 23.5 19.8 23.5 19.8 23.5 19.8 23.5 19.8 23.5 19.8 23.5 19.8 23.5 19.8 23.5 19.8 23.5 19.8 23.5 19.8 23.5 19.8 23.5 19.8 23.5 19.8 23.5 19.8 23.5 19.8 23.5 19.8 23.5 19.8 23.5 19.8 23.5 19.8 23.5 19.8 23.5 19.8 23.5 19.8 23.5 19.8 23.5 19.8 23.5 19.8 23.5 19.8 23.5 19.8 23.5 19.8 23.5 19.8 23.5 19.8 23.5 19.8 23.5 19.8 23.5 19.8 23.5 19.8 23.5 19.8 23.5 19.8 23.5 19.8 23.5 19.8 23.5 19.8 23.5 19.8 23.5 19.8 23.5 19.8 23.5 19.7 23.5 19.7 23.5 19.7 23.5 19.7 23.5 19.7 23.5 19.7 23.5 19.7 23.5 19.7 23.5 19.7 23.5 19.7 23.5 19.7 23.5 19.7 23.5 19.7 23.5 19.7 23.5 19.7 23.5 19.7 23.5 19.7 23.5 19.7 23.5 19.7 23.5 19.7 23.5 19.7 23.5 19.7 23.5 19.7 23.5 19.7 23.5 19.7 23.5 19.7 23.5 19.7 23.5 19.7 23.5 19.7 23.5 19.7 23.5 19.7 23.5 19.7 23.5 19.7 23.5 19.7 23.5 19.7 23.5 19.7 23.5 19.7 23.5 19.7 23.5 19.7 23.5 19.7 23.5 19.7 23.5 19.7 23.5 19.7 23.5 19.7 23.5 19.7 23.5 19.7 23.5 19.7 23.5 19.7 23.5 19.7 23.5 19.7 23.5 19.7 23.5 19.7 23.5 19.7 23.5 19.7 23.5 19.7 23.5 19.7 23.5 19.7 23.5 19.7 23.5 19.6 23.5 19.6 23.5 19.6 23.5 19.6 23.5 19.6 23.5 19.6 23.5 19.6 23.5 19.6 23.5 19.6 23.5 19.6 23.5 19.6 23.5 19.6 23.5 19.6 23.5 19.6 23.5 19.6 23.5 19.6 23.5 19.6 23.5 19.6 23.5 19.6 23.5 19.6 23.5 19.6 23.5 19.6 23.5 19.6 23.5 19.6 23.5 19.6 23.5 19.6 23.5 19.6 23.5 19.6 23.5 19.6 23.5 19.6 23.5 19.6 23.5 19.6 23.5 19.6 23.5 19.6 23.5 19.6 23.5 19.6 23.5 19.6 23.5 19.6 23.5 19.6 23.5 19.6 23.5 19.6 23.5 19.6 23.5 19.6 23.5 19.6 23.5 19.6 23.5 19.6 23.5 19.6 23.5 19.6 23.5 19.6 23.5 19.6 23.5 19.6 23.5 19.5 23.5 19.5 23.5 19.5 23.5 19.5 23.5 19.5 23.5 19.5 23.5 19.5 23.5 19.5 23.5 19.5 23.5 19.5 23.5 19.5 23.5 19.5 23.5 19.5 23.5 19.5 23.5 19.5 23.5 19.5 23.5 19.5 23.5 19.5 23.5 19.5 23.5 19.5 23.5 19.5 23.5 19.5 23.5 19.5 23.5 19.5 23.5 19.5 23.5 19.5 23.5 19.5 23.5 19.5 23.5 19.5 23.5 19.5 23.5 19.5 23.5 19.5 23.5 19.5 23.5 19.5 23.5 19.5 23.5 19.5 23.5 19.5 23.5 19.5 23.5 19.5 23.5 19.5 23.5 19.5 23.5 19.5 23.5 19.5 23.5 19.5 23.5 19.5 23.5 19.5 23.5 19.4 23.5 19.4 23.5 19.4 23.5 19.4 23.5 19.4 23.5 19.4 23.5 19.4 23.5 19.4 23.5 19.4 23.5 19.4 23.5 19.4 23.5 19.4 23.5 19.4 23.5 19.4 23.5 19.4 23.5 19.4 23.5 19.4 23.5 19.4 23.5 19.4 23.5 19.4 23.5 19.4 23.5 19.4 23.5 19.4 23.5 19.4 23.5 19.4 23.5 19.4 23.5 19.4 23.5 19.4 23.5 19.4 23.5 19.4 23.5 19.4 23.5 19.4 23.5 19.4 23.5 19.4 23.5 19.4 23.5 19.4 23.5 19.4 23.5 19.4 23.5 19.4 23.5 19.4 23.5 19.4 23.5 19.4 23.5 19.4 23.5 19.3 23.5 19.3 23.5 19.3 23.5 19.3 23.5 19.3 23.5 19.3 23.5 19.3 23.5 19.3 23.5 19.3 23.5 19.3 23.5 19.3 23.5 19.3 23.5 19.3 23.5 19.3 23.5 19.3 23.5 19.3 23.5 19.3 23.5 19.3 23.5 19.3 23.5 19.3 23.5 19.3 23.5 19.3 23.5 19.3 23.5 19.3 23.5 19.3 23.5 19.3 23.5 19.3 23.5 19.3 23.5 19.3 23.5 19.3 23.5 19.3 23.5 19.3 23.5 19.3 23.5 19.3 23.5 19.3 23.5 19.3 23.5 19.3 23.5 19.3 23.5 19.3 23.5 19.3 23.5 19.3 23.5 19.2 23.5 19.2 23.5 19.2 23.5 19.2 23.5 19.2 23.5 19.2 23.5 19.2 23.5 19.2 23.5 19.2 23.5 19.2 23.5 19.2 23.5 19.2 23.5 19.2 23.5 19.2 23.5 19.2 23.5 19.2 23.5 19.2 23.5 19.2 23.5 19.2 23.5 19.2 23.5 19.2 23.5 19.2 23.5 19.2 23.5 19.2 23.5 19.2 23.5 19.2 23.5 19.2 23.5 19.2 23.5 19.2 23.5 19.2 23.5 19.2 23.5 19.2 23.5 19.2 23.5 19.2 23.5 19.2 23.5 19.2 23.5 19.2 23.5 19.2 23.5 19.1 23.5 19.1 23.5 19.1 23.5 19.1 23.5 19.1 23.5 19.1 23.5 19.1 23.5 19.1 23.5 19.1 23.5 19.1 23.5 19.1 23.5 19.1 23.5 19.1 23.5 19.1 23.5 19.1 23.5 19.1 23.5 19.1 23.5 19.1 23.5 19.1 23.5 19.1 23.5 19.1 23.5 19.1 23.5 19.1 23.5 19.1 23.5 19.1 23.5 19.1 23.5 19.1 23.5 19.1 23.5 19.1 23.5 19.1 23.5 19.1 23.5 19.1 23.5 19.1 23.5 19.1 23.5 19.1 23.5 19.1 23.5 19.1 23.5 19 23.5 19 23.5 19 23.5 19 23.5 19 23.5 19 23.5 19 23.5 19 23.5 19 23.5 19 23.5 19 23.5 19 23.5 19 23.5 19 23.5 19 23.5 19 23.5 19 23.5 19 23.5 19 23.5 19 23.5 19 23.5 19 23.5 19 23.5 19 23.5 19 23.5 19 23.5 19 23.5 19 23.5 19 23.5 19 23.5 19 23.5 19 23.5 19 23.5 19 23.5 19 23.5 19 23.5 18.9 23.5 18.9 23.5 18.9 23.5 18.9 23.5 18.9 23.5 18.9 23.5 18.9 23.5 18.9 23.5 18.9 23.5 18.9 23.5 18.9 23.5 18.9 23.5 18.9 23.5 18.9 23.5 18.9 23.5 18.9 23.5 18.9 23.5 18.9 23.5 18.9 23.5 18.9 23.5 18.9 23.5 18.9 23.5 18.9 23.5 18.9 23.5 18.9 23.5 18.9 23.5 18.9 23.5 18.9 23.5 18.9 23.5 18.9 23.5 18.9 23.5 18.9 23.5 18.9 23.5 18.9 23.5 18.8 23.5 18.8 23.5 18.8 23.5 18.8 23.5 18.8 23.5 18.8 23.5 18.8 23.5 18.8 23.5 18.8 23.5 18.8 23.5 18.8 23.5 18.8 23.5 18.8 23.5 18.8 23.5 18.8 23.5 18.8 23.5 18.8 23.5 18.8 23.5 18.8 23.5 18.8 23.5 18.8 23.5 18.8 23.5 18.8 23.5 18.8 23.5 18.8 23.5 18.8 23.5 18.8 23.5 18.8 23.5 18.8 23.5 18.8 23.5 18.8 23.5 18.8 23.5 18.8 23.5 18.7 23.5 18.7 23.5 18.7 23.5 18.7 23.5 18.7 23.5 18.7 23.5 18.7 23.5 18.7 23.5 18.7 23.5 18.7 23.5 18.7 23.5 18.7 23.5 18.7 23.5 18.7 23.5 18.7 23.5 18.7 23.5 18.7 23.5 18.7 23.5 18.7 23.5 18.7 23.5 18.7 23.5 18.7 23.5 18.7 23.5 18.7 23.5 18.7 23.5 18.7 23.5 18.7 23.5 18.7 23.5 18.7 23.5 18.7 23.5 18.7 23.5 18.7 23.5 18.7 23.5 18.6 23.5 18.6 23.5 18.6 23.5 18.6 23.5 18.6 23.5 18.6 23.5 18.6 23.5 18.6 23.5 18.6 23.5 18.6 23.5 18.6 23.5 18.6 23.5 18.6 23.5 18.6 23.5 18.6 23.5 18.6 23.5 18.6 23.5 18.6 23.5 18.6 23.5 18.6 23.5 18.6 23.5 18.6 23.5 18.6 23.5 18.6 23.5 18.6 23.5 18.6 23.5 18.6 23.5 18.6 23.5 18.6 23.5 18.6 23.5 18.6 23.5 18.6 23.5 18.5 23.5 18.5 23.5 18.5 23.5 18.5 23.5 18.5 23.5 18.5 23.5 18.5 23.5 18.5 23.5 18.5 23.5 18.5 23.5 18.5 23.5 18.5 23.5 18.5 23.5 18.5 23.5 18.5 23.5 18.5 23.5 18.5 23.5 18.5 23.5 18.5 23.5 18.5 23.5 18.5 23.5 18.5 23.5 18.5 23.5 18.5 23.5 18.5 23.5 18.5 23.5 18.5 23.5 18.5 23.5 18.5 23.5 18.5 23.5 18.5 23.5 18.4 23.5 18.4 23.5 18.4 23.5 18.4 23.5 18.4 23.5 18.4 23.5 18.4 23.5 18.4 23.5 18.4 23.5 18.4 23.5 18.4 23.5 18.4 23.5 18.4 23.5 18.4 23.5 18.4 23.5 18.4 23.5 18.4 23.5 18.4 23.5 18.4 23.5 18.4 23.5 18.4 23.5 18.4 23.5 18.4 23.5 18.4 23.5 18.4 23.5 18.4 23.5 18.4 23.5 18.4 23.5 18.4 23.5 18.4 23.5 18.4 23.5 18.3 23.5 18.3 23.5 18.3 23.5 18.3 23.5 18.3 23.5 18.3 23.5 18.3 23.5 18.3 23.5 18.3 23.5 18.3 23.5 18.3 23.5 18.3 23.5 18.3 23.5 18.3 23.5 18.3 23.5 18.3 23.5 18.3 23.5 18.3 23.5 18.3 23.5 18.3 23.5 18.3 23.5 18.3 23.5 18.3 23.5 18.3 23.5 18.3 23.5 18.3 23.5 18.3 23.5 18.3 23.5 18.3 23.5 18.3 23.5 18.2 23.5 18.2 23.5 18.2 23.5 18.2 23.5 18.2 23.5 18.2 23.5 18.2 23.5 18.2 23.5 18.2 23.5 18.2 23.5 18.2 23.5 18.2 23.5 18.2 23.5 18.2 23.5 18.2 23.5 18.2 23.5 18.2 23.5 18.2 23.5 18.2 23.5 18.2 23.5 18.2 23.5 18.2 23.5 18.2 23.5 18.2 23.5 18.2 23.5 18.2 23.5 18.2 23.5 18.2 23.5 18.2 23.5 18.2 23.5 18.1 23.5 18.1 23.5 18.1 23.5 18.1 23.5 18.1 23.5 18.1 23.5 18.1 23.5 18.1 23.5 18.1 23.5 18.1 23.5 18.1 23.5 18.1 23.5 18.1 23.5 18.1 23.5 18.1 23.5 18.1 23.5 18.1 23.5 18.1 23.5 18.1 23.5 18.1 23.5 18.1 23.5 18.1 23.5 18.1 23.5 18.1 23.5 18.1 23.5 18.1 23.5 18.1 23.5 18.1 23.5 18.1 23.5 18.1 23.5 18 23.5 18 23.5 18 23.5 18 23.5 18 23.5 18 23.5 18 23.5 18 23.5 18 23.5 18 23.5 18 23.5 18 23.5 18 23.5 18 23.5 18 23.5 18 23.5 18 23.5 18 23.5 18 23.5 18 23.5 18 23.5 18 23.5 18 23.5 18 23.5 18 23.5 18 23.5 18 23.5 18 23.5 18 23.5 17.9 23.5 17.9 23.5 17.9 23.5 17.9 23.5 17.9 23.5 17.9 23.5 17.9 23.5 17.9 23.5 17.9 23.5 17.9 23.5 17.9 23.5 17.9 23.5 17.9 23.5 17.9 23.5 17.9 23.5 17.9 23.5 17.9 23.5 17.9 23.5 17.9 23.5 17.9 23.5 17.9 23.5 17.9 23.5 17.9 23.5 17.9 23.5 17.9 23.5 17.9 23.5 17.9 23.5 17.9 23.5 17.9 23.5 17.8 23.5 17.8 23.5 17.8 23.5 17.8 23.5 17.8 23.5 17.8 23.5 17.8 23.5 17.8 23.5 17.8 23.5 17.8 23.5 17.8 23.5 17.8 23.5 17.8 23.5 17.8 23.5 17.8 23.5 17.8 23.5 17.8 23.5 17.8 23.5 17.8 23.5 17.8 23.5 17.8 23.5 17.8 23.5 17.8 23.5 17.8 23.5 17.8 23.5 17.8 23.5 17.8 23.5 17.8 23.5 17.8 23.5 17.7 23.5 17.7 23.5 17.7 23.5 17.7 23.5 17.7 23.5 17.7 23.5 17.7 23.5 17.7 23.5 17.7 23.5 17.7 23.5 17.7 23.5 17.7 23.5 17.7 23.5 17.7 23.5 17.7 23.5 17.7 23.5 17.7 23.5 17.7 23.5 17.7 23.5 17.7 23.5 17.7 23.5 17.7 23.5 17.7 23.5 17.7 23.5 17.7 23.5 17.7 23.5 17.7 23.5 17.7 23.5 17.7 23.5 17.6 23.5 17.6 23.5 17.6 23.5 17.6 23.5 17.6 23.5 17.6 23.5 17.6 23.5 17.6 23.5 17.6 23.5 17.6 23.5 17.6 23.5 17.6 23.5 17.6 23.5 17.6 23.5 17.6 23.5 17.6 23.5 17.6 23.5 17.6 23.5 17.6 23.5 17.6 23.5 17.6 23.5 17.6 23.5 17.6 23.5 17.6 23.5 17.6 23.5 17.6 23.5 17.6 23.5 17.6 23.5 17.6 23.5 17.5 23.5 17.5 23.5 17.5 23.5 17.5 23.5 17.5 23.5 17.5 23.5 17.5 23.5 17.5 23.5 17.5 23.5 17.5 23.5 17.5 23.5 17.5 23.5 17.5 23.5 17.5 23.5 17.5 23.5 17.5 23.5 17.5 23.5 17.5 23.5 17.5 23.5 17.5 23.5 17.5 23.5 17.5 23.5 17.5 23.5 17.5 23.5 17.5 23.5 17.5 23.5 17.5 23.5 17.5 23.5 17.4 23.5 17.4 23.5 17.4 23.5 17.4 23.5 17.4 23.5 17.4 23.5 17.4 23.5 17.4 23.5 17.4 23.5 17.4 23.5 17.4 23.5 17.4 23.5 17.4 23.5 17.4 23.5 17.4 23.5 17.4 23.5 17.4 23.5 17.4 23.5 17.4 23.5 17.4 23.5 17.4 23.5 17.4 23.5 17.4 23.5 17.4 23.5 17.4 23.5 17.4 23.5 17.4 23.5 17.4 23.5 17.4 23.5 17.3 23.5 17.3 23.5 17.3 23.5 17.3 23.5 17.3 23.5 17.3 23.5 17.3 23.5 17.3 23.5 17.3 23.5 17.3 23.5 17.3 23.5 17.3 23.5 17.3 23.5 17.3 23.5 17.3 23.5 17.3 23.5 17.3 23.5 17.3 23.5 17.3 23.5 17.3 23.5 17.3 23.5 17.3 23.5 17.3 23.5 17.3 23.5 17.3 23.5 17.3 23.5 17.3 23.5 17.3 23.5 17.2 23.5 17.2 23.5 17.2 23.5 17.2 23.5 17.2 23.5 17.2 23.5 17.2 23.5 17.2 23.5 17.2 23.5 17.2 23.5 17.2 23.5 17.2 23.5 17.2 23.5 17.2 23.5 17.2 23.5 17.2 23.5 17.2 23.5 17.2 23.5 17.2 23.5 17.2 23.5 17.2 23.5 17.2 23.5 17.2 23.5 17.2 23.5 17.2 23.5 17.2 23.5 17.2 23.5 17.2 23.5 17.2 23.5 17.1 23.5 17.1 23.5 17.1 23.5 17.1 23.5 17.1 23.5 17.1 23.5 17.1 23.5 17.1 23.5 17.1 23.5 17.1 23.5 17.1 23.5 17.1 23.5 17.1 23.5 17.1 23.5 17.1 23.5 17.1 23.5 17.1 23.5 17.1 23.5 17.1 23.5 17.1 23.5 17.1 23.5 17.1 23.5 17.1 23.5 17.1 23.5 17.1 23.5 17.1 23.5 17.1 23.5 17.1 23.5 17 23.5 17 23.5 17 23.5 17 23.5 17 23.5 17 23.5 17 23.5 17 23.5 17 23.5 17 23.5 17 23.5 17 23.5 17 23.5 17 23.5 17 23.5 17 23.5 17 23.5 17 23.5 17 23.5 17 23.5 17 23.5 17 23.5 17 23.5 17 23.5 17 23.5 17 23.5 17 23.5 17 23.5 17 23.5 16.9 23.5 16.9 23.5 16.9 23.5 16.9 23.5 16.9 23.5 16.9 23.5 16.9 23.5 16.9 23.5 16.9 23.5 16.9 23.5 16.9 23.5 16.9 23.5 16.9 23.5 16.9 23.5 16.9 23.5 16.9 23.5 16.9 23.5 16.9 23.5 16.9 23.5 16.9 23.5 16.9 23.5 16.9 23.5 16.9 23.5 16.9 23.5 16.9 23.5 16.9 23.5 16.9 23.5 16.9 23.5 16.9 23.5 16.8 23.5 16.8 23.5 16.8 23.5 16.8 23.5 16.8 23.5 16.8 23.5 16.8 23.5 16.8 23.5 16.8 23.5 16.8 23.5 16.8 23.5 16.8 23.5 16.8 23.5 16.8 23.5 16.8 23.5 16.8 23.5 16.8 23.5 16.8 23.5 16.8 23.5 16.8 23.5 16.8 23.5 16.8 23.5 16.8 23.5 16.8 23.5 16.8 23.5 16.8 23.5 16.8 23.5 16.8 23.5 16.8 23.5 16.7 23.5 16.7 23.5 16.7 23.5 16.7 23.5 16.7 23.5 16.7 23.5 16.7 23.5 16.7 23.5 16.7 23.5 16.7 23.5 16.7 23.5 16.7 23.5 16.7 23.5 16.7 23.5 16.7 23.5 16.7 23.5 16.7 23.5 16.7 23.5 16.7 23.5 16.7 23.5 16.7 23.5 16.7 23.5 16.7 23.5 16.7 23.5 16.7 23.5 16.7 23.5 16.7 23.5 16.7 23.5 16.7 23.5 16.7 23.5 16.6 23.5 16.6 23.5 16.6 23.5 16.6 23.5 16.6 23.5 16.6 23.5 16.6 23.5 16.6 23.5 16.6 23.5 16.6 23.5 16.6 23.5 16.6 23.5 16.6 23.5 16.6 23.5 16.6 23.5 16.6 23.5 16.6 23.5 16.6 23.5 16.6 23.5 16.6 23.5 16.6 23.5 16.6 23.5 16.6 23.5 16.6 23.5 16.6 23.5 16.6 23.5 16.6 23.5 16.6 23.5 16.6 23.5 16.5 23.5 16.5 23.5 16.5 23.5 16.5 23.5 16.5 23.5 16.5 23.5 16.5 23.5 16.5 23.5 16.5 23.5 16.5 23.5 16.5 23.5 16.5 23.5 16.5 23.5 16.5 23.5 16.5 23.5 16.5 23.5 16.5 23.5 16.5 23.5 16.5 23.5 16.5 23.5 16.5 23.5 16.5 23.5 16.5 23.5 16.5 23.5 16.5 23.5 16.5 23.5 16.5 23.5 16.5 23.5 16.5 23.5 16.5 23.5 16.4 23.5 16.4 23.5 16.4 23.5 16.4 23.5 16.4 23.5 16.4 23.5 16.4 23.5 16.4 23.5 16.4 23.5 16.4 23.5 16.4 23.5 16.4 23.5 16.4 23.5 16.4 23.5 16.4 23.5 16.4 23.5 16.4 23.5 16.4 23.5 16.4 23.5 16.4 23.5 16.4 23.5 16.4 23.5 16.4 23.5 16.4 23.5 16.4 23.5 16.4 23.5 16.4 23.5 16.4 23.5 16.4 23.5 16.4 23.5 16.4 23.5 16.3 23.5 16.3 23.5 16.3 23.5 16.3 23.5 16.3 23.5 16.3 23.5 16.3 23.5 16.3 23.5 16.3 23.5 16.3 23.5 16.3 23.5 16.3 23.5 16.3 23.5 16.3 23.5 16.3 23.5 16.3 23.5 16.3 23.5 16.3 23.5 16.3 23.5 16.3 23.5 16.3 23.5 16.3 23.5 16.3 23.5 16.3 23.5 16.3 23.5 16.3 23.5 16.3 23.5 16.3 23.5 16.3 23.5 16.3 23.5 16.3 23.5 16.2 23.5 16.2 23.5 16.2 23.5 16.2 23.5 16.2 23.5 16.2 23.5 16.2 23.5 16.2 23.5 16.2 23.5 16.2 23.5 16.2 23.5 16.2 23.5 16.2 23.5 16.2 23.5 16.2 23.5 16.2 23.5 16.2 23.5 16.2 23.5 16.2 23.5 16.2 23.5 16.2 23.5 16.2 23.5 16.2 23.5 16.2 23.5 16.2 23.5 16.2 23.5 16.2 23.5 16.2 23.5 16.2 23.5 16.2 23.5 16.2 23.5 16.1 23.5 16.1 23.5 16.1 23.5 16.1 23.5 16.1 23.5 16.1 23.5 16.1 23.5 16.1 23.5 16.1 23.5 16.1 23.5 16.1 23.5 16.1 23.5 16.1 23.5 16.1 23.5 16.1 23.5 16.1 23.5 16.1 23.5 16.1 23.5 16.1 23.5 16.1 23.5 16.1 23.5 16.1 23.5 16.1 23.5 16.1 23.5 16.1 23.5 16.1 23.5 16.1 23.5 16.1 23.5 16.1 23.5 16.1 23.5 16.1 23.5 16.1 23.5 16 23.5 16 23.5 16 23.5 16 23.5 16 23.5 16 23.5 16 23.5 16 23.5 16 23.5 16 23.5 16 23.5 16 23.5 16 23.5 16 23.5 16 23.5 16 23.5 16H22.5C22.5 16 22.5 16 22.5 16 22.5 16 22.5 16 22.5 16 22.5 16 22.5 16 22.5 16 22.5 16 22.5 16 22.5 16 22.5 16 22.5 16 22.5 16 22.5 16 22.5 16.1 22.5 16.1 22.5 16.1 22.5 16.1 22.5 16.1 22.5 16.1 22.5 16.1 22.5 16.1 22.5 16.1 22.5 16.1 22.5 16.1 22.5 16.1 22.5 16.1 22.5 16.1 22.5 16.1 22.5 16.1 22.5 16.1 22.5 16.1 22.5 16.1 22.5 16.1 22.5 16.1 22.5 16.1 22.5 16.1 22.5 16.1 22.5 16.1 22.5 16.1 22.5 16.1 22.5 16.1 22.5 16.1 22.5 16.1 22.5 16.1 22.5 16.1 22.5 16.2 22.5 16.2 22.5 16.2 22.5 16.2 22.5 16.2 22.5 16.2 22.5 16.2 22.5 16.2 22.5 16.2 22.5 16.2 22.5 16.2 22.5 16.2 22.5 16.2 22.5 16.2 22.5 16.2 22.5 16.2 22.5 16.2 22.5 16.2 22.5 16.2 22.5 16.2 22.5 16.2 22.5 16.2 22.5 16.2 22.5 16.2 22.5 16.2 22.5 16.2 22.5 16.2 22.5 16.2 22.5 16.2 22.5 16.2 22.5 16.2 22.5 16.3 22.5 16.3 22.5 16.3 22.5 16.3 22.5 16.3 22.5 16.3 22.5 16.3 22.5 16.3 22.5 16.3 22.5 16.3 22.5 16.3 22.5 16.3 22.5 16.3 22.5 16.3 22.5 16.3 22.5 16.3 22.5 16.3 22.5 16.3 22.5 16.3 22.5 16.3 22.5 16.3 22.5 16.3 22.5 16.3 22.5 16.3 22.5 16.3 22.5 16.3 22.5 16.3 22.5 16.3 22.5 16.3 22.5 16.3 22.5 16.3 22.5 16.4 22.5 16.4 22.5 16.4 22.5 16.4 22.5 16.4 22.5 16.4 22.5 16.4 22.5 16.4 22.5 16.4 22.5 16.4 22.5 16.4 22.5 16.4 22.5 16.4 22.5 16.4 22.5 16.4 22.5 16.4 22.5 16.4 22.5 16.4 22.5 16.4 22.5 16.4 22.5 16.4 22.5 16.4 22.5 16.4 22.5 16.4 22.5 16.4 22.5 16.4 22.5 16.4 22.5 16.4 22.5 16.4 22.5 16.4 22.5 16.4 22.5 16.5 22.5 16.5 22.5 16.5 22.5 16.5 22.5 16.5 22.5 16.5 22.5 16.5 22.5 16.5 22.5 16.5 22.5 16.5 22.5 16.5 22.5 16.5 22.5 16.5 22.5 16.5 22.5 16.5 22.5 16.5 22.5 16.5 22.5 16.5 22.5 16.5 22.5 16.5 22.5 16.5 22.5 16.5 22.5 16.5 22.5 16.5 22.5 16.5 22.5 16.5 22.5 16.5 22.5 16.5 22.5 16.5 22.5 16.5 22.5 16.6 22.5 16.6 22.5 16.6 22.5 16.6 22.5 16.6 22.5 16.6 22.5 16.6 22.5 16.6 22.5 16.6 22.5 16.6 22.5 16.6 22.5 16.6 22.5 16.6 22.5 16.6 22.5 16.6 22.5 16.6 22.5 16.6 22.5 16.6 22.5 16.6 22.5 16.6 22.5 16.6 22.5 16.6 22.5 16.6 22.5 16.6 22.5 16.6 22.5 16.6 22.5 16.6 22.5 16.6 22.5 16.6 22.5 16.7 22.5 16.7 22.5 16.7 22.5 16.7 22.5 16.7 22.5 16.7 22.5 16.7 22.5 16.7 22.5 16.7 22.5 16.7 22.5 16.7 22.5 16.7 22.5 16.7 22.5 16.7 22.5 16.7 22.5 16.7 22.5 16.7 22.5 16.7 22.5 16.7 22.5 16.7 22.5 16.7 22.5 16.7 22.5 16.7 22.5 16.7 22.5 16.7 22.5 16.7 22.5 16.7 22.5 16.7 22.5 16.7 22.5 16.7 22.5 16.8 22.5 16.8 22.5 16.8 22.5 16.8 22.5 16.8 22.5 16.8 22.5 16.8 22.5 16.8 22.5 16.8 22.5 16.8 22.5 16.8 22.5 16.8 22.5 16.8 22.5 16.8 22.5 16.8 22.5 16.8 22.5 16.8 22.5 16.8 22.5 16.8 22.5 16.8 22.5 16.8 22.5 16.8 22.5 16.8 22.5 16.8 22.5 16.8 22.5 16.8 22.5 16.8 22.5 16.8 22.5 16.8 22.5 16.9 22.5 16.9 22.5 16.9 22.5 16.9 22.5 16.9 22.5 16.9 22.5 16.9 22.5 16.9 22.5 16.9 22.5 16.9 22.5 16.9 22.5 16.9 22.5 16.9 22.5 16.9 22.5 16.9 22.5 16.9 22.5 16.9 22.5 16.9 22.5 16.9 22.5 16.9 22.5 16.9 22.5 16.9 22.5 16.9 22.5 16.9 22.5 16.9 22.5 16.9 22.5 16.9 22.5 16.9 22.5 16.9 22.5 17 22.5 17 22.5 17 22.5 17 22.5 17 22.5 17 22.5 17 22.5 17 22.5 17 22.5 17 22.5 17 22.5 17 22.5 17 22.5 17 22.5 17 22.5 17 22.5 17 22.5 17 22.5 17 22.5 17 22.5 17 22.5 17 22.5 17 22.5 17 22.5 17 22.5 17 22.5 17 22.5 17 22.5 17 22.5 17.1 22.5 17.1 22.5 17.1 22.5 17.1 22.5 17.1 22.5 17.1 22.5 17.1 22.5 17.1 22.5 17.1 22.5 17.1 22.5 17.1 22.5 17.1 22.5 17.1 22.5 17.1 22.5 17.1 22.5 17.1 22.5 17.1 22.5 17.1 22.5 17.1 22.5 17.1 22.5 17.1 22.5 17.1 22.5 17.1 22.5 17.1 22.5 17.1 22.5 17.1 22.5 17.1 22.5 17.1 22.5 17.2 22.5 17.2 22.5 17.2 22.5 17.2 22.5 17.2 22.5 17.2 22.5 17.2 22.5 17.2 22.5 17.2 22.5 17.2 22.5 17.2 22.5 17.2 22.5 17.2 22.5 17.2 22.5 17.2 22.5 17.2 22.5 17.2 22.5 17.2 22.5 17.2 22.5 17.2 22.5 17.2 22.5 17.2 22.5 17.2 22.5 17.2 22.5 17.2 22.5 17.2 22.5 17.2 22.5 17.2 22.5 17.2 22.5 17.3 22.5 17.3 22.5 17.3 22.5 17.3 22.5 17.3 22.5 17.3 22.5 17.3 22.5 17.3 22.5 17.3 22.5 17.3 22.5 17.3 22.5 17.3 22.5 17.3 22.5 17.3 22.5 17.3 22.5 17.3 22.5 17.3 22.5 17.3 22.5 17.3 22.5 17.3 22.5 17.3 22.5 17.3 22.5 17.3 22.5 17.3 22.5 17.3 22.5 17.3 22.5 17.3 22.5 17.3 22.5 17.4 22.5 17.4 22.5 17.4 22.5 17.4 22.5 17.4 22.5 17.4 22.5 17.4 22.5 17.4 22.5 17.4 22.5 17.4 22.5 17.4 22.5 17.4 22.5 17.4 22.5 17.4 22.5 17.4 22.5 17.4 22.5 17.4 22.5 17.4 22.5 17.4 22.5 17.4 22.5 17.4 22.5 17.4 22.5 17.4 22.5 17.4 22.5 17.4 22.5 17.4 22.5 17.4 22.5 17.4 22.5 17.4 22.5 17.5 22.5 17.5 22.5 17.5 22.5 17.5 22.5 17.5 22.5 17.5 22.5 17.5 22.5 17.5 22.5 17.5 22.5 17.5 22.5 17.5 22.5 17.5 22.5 17.5 22.5 17.5 22.5 17.5 22.5 17.5 22.5 17.5 22.5 17.5 22.5 17.5 22.5 17.5 22.5 17.5 22.5 17.5 22.5 17.5 22.5 17.5 22.5 17.5 22.5 17.5 22.5 17.5 22.5 17.5 22.5 17.6 22.5 17.6 22.5 17.6 22.5 17.6 22.5 17.6 22.5 17.6 22.5 17.6 22.5 17.6 22.5 17.6 22.5 17.6 22.5 17.6 22.5 17.6 22.5 17.6 22.5 17.6 22.5 17.6 22.5 17.6 22.5 17.6 22.5 17.6 22.5 17.6 22.5 17.6 22.5 17.6 22.5 17.6 22.5 17.6 22.5 17.6 22.5 17.6 22.5 17.6 22.5 17.6 22.5 17.6 22.5 17.6 22.5 17.7 22.5 17.7 22.5 17.7 22.5 17.7 22.5 17.7 22.5 17.7 22.5 17.7 22.5 17.7 22.5 17.7 22.5 17.7 22.5 17.7 22.5 17.7 22.5 17.7 22.5 17.7 22.5 17.7 22.5 17.7 22.5 17.7 22.5 17.7 22.5 17.7 22.5 17.7 22.5 17.7 22.5 17.7 22.5 17.7 22.5 17.7 22.5 17.7 22.5 17.7 22.5 17.7 22.5 17.7 22.5 17.7 22.5 17.8 22.5 17.8 22.5 17.8 22.5 17.8 22.5 17.8 22.5 17.8 22.5 17.8 22.5 17.8 22.5 17.8 22.5 17.8 22.5 17.8 22.5 17.8 22.5 17.8 22.5 17.8 22.5 17.8 22.5 17.8 22.5 17.8 22.5 17.8 22.5 17.8 22.5 17.8 22.5 17.8 22.5 17.8 22.5 17.8 22.5 17.8 22.5 17.8 22.5 17.8 22.5 17.8 22.5 17.8 22.5 17.8 22.5 17.9 22.5 17.9 22.5 17.9 22.5 17.9 22.5 17.9 22.5 17.9 22.5 17.9 22.5 17.9 22.5 17.9 22.5 17.9 22.5 17.9 22.5 17.9 22.5 17.9 22.5 17.9 22.5 17.9 22.5 17.9 22.5 17.9 22.5 17.9 22.5 17.9 22.5 17.9 22.5 17.9 22.5 17.9 22.5 17.9 22.5 17.9 22.5 17.9 22.5 17.9 22.5 17.9 22.5 17.9 22.5 17.9 22.5 18 22.5 18 22.5 18 22.5 18 22.5 18 22.5 18 22.5 18 22.5 18 22.5 18 22.5 18 22.5 18 22.5 18 22.5 18 22.5 18 22.5 18 22.5 18 22.5 18 22.5 18 22.5 18 22.5 18 22.5 18 22.5 18 22.5 18 22.5 18 22.5 18 22.5 18 22.5 18 22.5 18 22.5 18 22.5 18.1 22.5 18.1 22.5 18.1 22.5 18.1 22.5 18.1 22.5 18.1 22.5 18.1 22.5 18.1 22.5 18.1 22.5 18.1 22.5 18.1 22.5 18.1 22.5 18.1 22.5 18.1 22.5 18.1 22.5 18.1 22.5 18.1 22.5 18.1 22.5 18.1 22.5 18.1 22.5 18.1 22.5 18.1 22.5 18.1 22.5 18.1 22.5 18.1 22.5 18.1 22.5 18.1 22.5 18.1 22.5 18.1 22.5 18.1 22.5 18.2 22.5 18.2 22.5 18.2 22.5 18.2 22.5 18.2 22.5 18.2 22.5 18.2 22.5 18.2 22.5 18.2 22.5 18.2 22.5 18.2 22.5 18.2 22.5 18.2 22.5 18.2 22.5 18.2 22.5 18.2 22.5 18.2 22.5 18.2 22.5 18.2 22.5 18.2 22.5 18.2 22.5 18.2 22.5 18.2 22.5 18.2 22.5 18.2 22.5 18.2 22.5 18.2 22.5 18.2 22.5 18.2 22.5 18.2 22.5 18.3 22.5 18.3 22.5 18.3 22.5 18.3 22.5 18.3 22.5 18.3 22.5 18.3 22.5 18.3 22.5 18.3 22.5 18.3 22.5 18.3 22.5 18.3 22.5 18.3 22.5 18.3 22.5 18.3 22.5 18.3 22.5 18.3 22.5 18.3 22.5 18.3 22.5 18.3 22.5 18.3 22.5 18.3 22.5 18.3 22.5 18.3 22.5 18.3 22.5 18.3 22.5 18.3 22.5 18.3 22.5 18.3 22.5 18.3 22.5 18.4 22.5 18.4 22.5 18.4 22.5 18.4 22.5 18.4 22.5 18.4 22.5 18.4 22.5 18.4 22.5 18.4 22.5 18.4 22.5 18.4 22.5 18.4 22.5 18.4 22.5 18.4 22.5 18.4 22.5 18.4 22.5 18.4 22.5 18.4 22.5 18.4 22.5 18.4 22.5 18.4 22.5 18.4 22.5 18.4 22.5 18.4 22.5 18.4 22.5 18.4 22.5 18.4 22.5 18.4 22.5 18.4 22.5 18.4 22.5 18.4 22.5 18.5 22.5 18.5 22.5 18.5 22.5 18.5 22.5 18.5 22.5 18.5 22.5 18.5 22.5 18.5 22.5 18.5 22.5 18.5 22.5 18.5 22.5 18.5 22.5 18.5 22.5 18.5 22.5 18.5 22.5 18.5 22.5 18.5 22.5 18.5 22.5 18.5 22.5 18.5 22.5 18.5 22.5 18.5 22.5 18.5 22.5 18.5 22.5 18.5 22.5 18.5 22.5 18.5 22.5 18.5 22.5 18.5 22.5 18.5 22.5 18.5 22.5 18.6 22.5 18.6 22.5 18.6 22.5 18.6 22.5 18.6 22.5 18.6 22.5 18.6 22.5 18.6 22.5 18.6 22.5 18.6 22.5 18.6 22.5 18.6 22.5 18.6 22.5 18.6 22.5 18.6 22.5 18.6 22.5 18.6 22.5 18.6 22.5 18.6 22.5 18.6 22.5 18.6 22.5 18.6 22.5 18.6 22.5 18.6 22.5 18.6 22.5 18.6 22.5 18.6 22.5 18.6 22.5 18.6 22.5 18.6 22.5 18.6 22.5 18.6 22.5 18.7 22.5 18.7 22.5 18.7 22.5 18.7 22.5 18.7 22.5 18.7 22.5 18.7 22.5 18.7 22.5 18.7 22.5 18.7 22.5 18.7 22.5 18.7 22.5 18.7 22.5 18.7 22.5 18.7 22.5 18.7 22.5 18.7 22.5 18.7 22.5 18.7 22.5 18.7 22.5 18.7 22.5 18.7 22.5 18.7 22.5 18.7 22.5 18.7 22.5 18.7 22.5 18.7 22.5 18.7 22.5 18.7 22.5 18.7 22.5 18.7 22.5 18.7 22.5 18.7 22.5 18.8 22.5 18.8 22.5 18.8 22.5 18.8 22.5 18.8 22.5 18.8 22.5 18.8 22.5 18.8 22.5 18.8 22.5 18.8 22.5 18.8 22.5 18.8 22.5 18.8 22.5 18.8 22.5 18.8 22.5 18.8 22.5 18.8 22.5 18.8 22.5 18.8 22.5 18.8 22.5 18.8 22.5 18.8 22.5 18.8 22.5 18.8 22.5 18.8 22.5 18.8 22.5 18.8 22.5 18.8 22.5 18.8 22.5 18.8 22.5 18.8 22.5 18.8 22.5 18.8 22.5 18.9 22.5 18.9 22.5 18.9 22.5 18.9 22.5 18.9 22.5 18.9 22.5 18.9 22.5 18.9 22.5 18.9 22.5 18.9 22.5 18.9 22.5 18.9 22.5 18.9 22.5 18.9 22.5 18.9 22.5 18.9 22.5 18.9 22.5 18.9 22.5 18.9 22.5 18.9 22.5 18.9 22.5 18.9 22.5 18.9 22.5 18.9 22.5 18.9 22.5 18.9 22.5 18.9 22.5 18.9 22.5 18.9 22.5 18.9 22.5 18.9 22.5 18.9 22.5 18.9 22.5 18.9 22.5 19 22.5 19 22.5 19 22.5 19 22.5 19 22.5 19 22.5 19 22.5 19 22.5 19 22.5 19 22.5 19 22.5 19 22.5 19 22.5 19 22.5 19 22.5 19 22.5 19 22.5 19 22.5 19 22.5 19 22.5 19 22.5 19 22.5 19 22.5 19 22.5 19 22.5 19 22.5 19 22.5 19 22.5 19 22.5 19 22.5 19 22.5 19 22.5 19 22.5 19 22.5 19 22.5 19 22.5 19.1 22.5 19.1 22.5 19.1 22.5 19.1 22.5 19.1 22.5 19.1 22.5 19.1 22.5 19.1 22.5 19.1 22.5 19.1 22.5 19.1 22.5 19.1 22.5 19.1 22.5 19.1 22.5 19.1 22.5 19.1 22.5 19.1 22.5 19.1 22.5 19.1 22.5 19.1 22.5 19.1 22.5 19.1 22.5 19.1 22.5 19.1 22.5 19.1 22.5 19.1 22.5 19.1 22.5 19.1 22.5 19.1 22.5 19.1 22.5 19.1 22.5 19.1 22.5 19.1 22.5 19.1 22.5 19.1 22.5 19.1 22.5 19.1 22.5 19.2 22.5 19.2 22.5 19.2 22.5 19.2 22.5 19.2 22.5 19.2 22.5 19.2 22.5 19.2 22.5 19.2 22.5 19.2 22.5 19.2 22.5 19.2 22.5 19.2 22.5 19.2 22.5 19.2 22.5 19.2 22.5 19.2 22.5 19.2 22.5 19.2 22.5 19.2 22.5 19.2 22.5 19.2 22.5 19.2 22.5 19.2 22.5 19.2 22.5 19.2 22.5 19.2 22.5 19.2 22.5 19.2 22.5 19.2 22.5 19.2 22.5 19.2 22.5 19.2 22.5 19.2 22.5 19.2 22.5 19.2 22.5 19.2 22.5 19.2 22.5 19.3 22.5 19.3 22.5 19.3 22.5 19.3 22.5 19.3 22.5 19.3 22.5 19.3 22.5 19.3 22.5 19.3 22.5 19.3 22.5 19.3 22.5 19.3 22.5 19.3 22.5 19.3 22.5 19.3 22.5 19.3 22.5 19.3 22.5 19.3 22.5 19.3 22.5 19.3 22.5 19.3 22.5 19.3 22.5 19.3 22.5 19.3 22.5 19.3 22.5 19.3 22.5 19.3 22.5 19.3 22.5 19.3 22.5 19.3 22.5 19.3 22.5 19.3 22.5 19.3 22.5 19.3 22.5 19.3 22.5 19.3 22.5 19.3 22.5 19.3 22.5 19.3 22.5 19.3 22.5 19.3 22.5 19.4 22.5 19.4 22.5 19.4 22.5 19.4 22.5 19.4 22.5 19.4 22.5 19.4 22.5 19.4 22.5 19.4 22.5 19.4 22.5 19.4 22.5 19.4 22.5 19.4 22.5 19.4 22.5 19.4 22.5 19.4 22.5 19.4 22.5 19.4 22.5 19.4 22.5 19.4 22.5 19.4 22.5 19.4 22.5 19.4 22.5 19.4 22.5 19.4 22.5 19.4 22.5 19.4 22.5 19.4 22.5 19.4 22.5 19.4 22.5 19.4 22.5 19.4 22.5 19.4 22.5 19.4 22.5 19.4 22.5 19.4 22.5 19.4 22.5 19.4 22.5 19.4 22.5 19.4 22.5 19.4 22.5 19.4 22.5 19.4 22.5 19.5 22.5 19.5 22.5 19.5 22.5 19.5 22.5 19.5 22.5 19.5 22.5 19.5 22.5 19.5 22.5 19.5 22.5 19.5 22.5 19.5 22.5 19.5 22.5 19.5 22.5 19.5 22.5 19.5 22.5 19.5 22.5 19.5 22.5 19.5 22.5 19.5 22.5 19.5 22.5 19.5 22.5 19.5 22.5 19.5 22.5 19.5 22.5 19.5 22.5 19.5 22.5 19.5 22.5 19.5 22.5 19.5 22.5 19.5 22.5 19.5 22.5 19.5 22.5 19.5 22.5 19.5 22.5 19.5 22.5 19.5 22.5 19.5 22.5 19.5 22.5 19.5 22.5 19.5 22.5 19.5 22.5 19.5 22.5 19.5 22.5 19.5 22.5 19.5 22.5 19.5 22.5 19.6 22.5 19.6 22.5 19.6 22.5 19.6 22.5 19.6 22.5 19.6 22.5 19.6 22.5 19.6 22.5 19.6 22.5 19.6 22.5 19.6 22.5 19.6 22.5 19.6 22.5 19.6 22.5 19.6 22.5 19.6 22.5 19.6 22.5 19.6 22.5 19.6 22.5 19.6 22.5 19.6 22.5 19.6 22.5 19.6 22.5 19.6 22.5 19.6 22.5 19.6 22.5 19.6 22.5 19.6 22.5 19.6 22.5 19.6 22.5 19.6 22.5 19.6 22.5 19.6 22.5 19.6 22.5 19.6 22.5 19.6 22.5 19.6 22.5 19.6 22.5 19.6 22.5 19.6 22.5 19.6 22.5 19.6 22.5 19.6 22.5 19.6 22.5 19.6 22.5 19.6 22.5 19.6 22.5 19.6 22.5 19.6 22.5 19.6 22.5 19.6 22.5 19.7 22.5 19.7 22.5 19.7 22.5 19.7 22.5 19.7 22.5 19.7 22.5 19.7 22.5 19.7 22.5 19.7 22.5 19.7 22.5 19.7 22.5 19.7 22.5 19.7 22.5 19.7 22.5 19.7 22.5 19.7 22.5 19.7 22.5 19.7 22.5 19.7 22.5 19.7 22.5 19.7 22.5 19.7 22.5 19.7 22.5 19.7 22.5 19.7 22.5 19.7 22.5 19.7 22.5 19.7 22.5 19.7 22.5 19.7 22.5 19.7 22.5 19.7 22.5 19.7 22.5 19.7 22.5 19.7 22.5 19.7 22.5 19.7 22.5 19.7 22.5 19.7 22.5 19.7 22.5 19.7 22.5 19.7 22.5 19.7 22.5 19.7 22.5 19.7 22.5 19.7 22.5 19.7 22.5 19.7 22.5 19.7 22.5 19.7 22.5 19.7 22.5 19.7 22.5 19.7 22.5 19.7 22.5 19.7 22.5 19.7 22.5 19.7 22.5 19.7 22.5 19.8 22.5 19.8 22.5 19.8 22.5 19.8 22.5 19.8 22.5 19.8 22.5 19.8 22.5 19.8 22.5 19.8 22.5 19.8 22.5 19.8 22.5 19.8 22.5 19.8 22.5 19.8 22.5 19.8 22.5 19.8 22.5 19.8 22.5 19.8 22.5 19.8 22.5 19.8 22.5 19.8 22.5 19.8 22.5 19.8 22.5 19.8 22.5 19.8 22.5 19.8 22.5 19.8 22.5 19.8 22.5 19.8 22.5 19.8 22.5 19.8 22.5 19.8 22.5 19.8 22.5 19.8 22.5 19.8 22.5 19.8 22.5 19.8 22.5 19.8 22.5 19.8 22.5 19.8 22.5 19.8 22.5 19.8 22.5 19.8 22.5 19.8 22.5 19.8 22.5 19.8 22.5 19.8 22.5 19.8 22.5 19.8 22.5 19.8 22.5 19.8 22.5 19.8 22.5 19.8 22.5 19.8 22.5 19.8 22.5 19.8 22.5 19.8 22.5 19.8 22.5 19.8 22.5 19.8 22.5 19.8 22.5 19.8 22.5 19.8 22.5 19.8 22.5 19.8 22.5 19.8 22.5 19.8 22.5 19.8 22.5 19.8 22.5 19.8 22.5 19.9 22.5 19.9 22.5 19.9 22.5 19.9 22.5 19.9 22.5 19.9 22.5 19.9 22.5 19.9 22.5 19.9 22.5 19.9 22.5 19.9 22.5 19.9 22.5 19.9 22.5 19.9 22.5 19.9 22.5 19.9 22.5 19.9 22.5 19.9 22.5 19.9 22.5 19.9 22.5 19.9 22.5 19.9 22.5 19.9 22.5 19.9 22.5 19.9 22.5 19.9 22.5 19.9 22.5 19.9 22.5 19.9 22.5 19.9 22.5 19.9 22.5 19.9 22.5 19.9 22.5 19.9 22.5 19.9 22.5 19.9 22.5 19.9 22.5 19.9 22.5 19.9 22.5 19.9 22.5 19.9 22.5 19.9 22.5 19.9 22.5 19.9 22.5 19.9 22.5 19.9 22.5 19.9 22.5 19.9 22.5 19.9 22.5 19.9 22.5 19.9 22.5 19.9 22.5 19.9 22.5 19.9 22.5 19.9 22.5 19.9 22.5 19.9 22.5 19.9 22.5 19.9 22.5 19.9 22.5 19.9 22.5 19.9 22.5 19.9 22.5 19.9 22.5 19.9 22.5 19.9 22.5 19.9 22.5 19.9 22.5 19.9 22.5 19.9 22.5 19.9 22.5 19.9 22.5 19.9 22.5 19.9 22.5 19.9 22.5 19.9 22.5 19.9 22.5 19.9 22.5 19.9 22.5 19.9 22.5 19.9 22.5 19.9 22.5 19.9 22.5 19.9 22.5 19.9 22.5 19.9 22.5 19.9 22.5 19.9 22.5 19.9 22.5 19.9 22.5 19.9 22.5 19.9 22.5 19.9 22.5 19.9 22.5 19.9 22.5 19.9 22.5 19.9 22.5 19.9 22.5 20 22.5 20 22.5 20 22.5 20 22.5 20 22.5 20 22.5 20 22.5 20 22.5 20 22.5 20 22.5 20 22.5 20 22.5 20 22.5 20 22.5 20 22.5 20 22.5 20 22.5 20 22.5 20 22.5 20 22.5 20 22.5 20 22.5 20 22.5 20 22.5 20 22.5 20 22.5 20 22.5 20 22.5 20 22.5 20 22.5 20 22.5 20 22.5 20 22.5 20 22.5 20 22.5 20 22.5 20 22.5 20 22.5 20 22.5 20 22.5 20 22.5 20 22.5 20 22.5 20 22.5 20 22.5 20 22.5 20 22.5 20 22.5 20 22.5 20 22.5 20 22.5 20 22.5 20 22.5 20 22.5 20 22.5 20 22.5 20 22.5 20 22.5 20 22.5 20 22.5 20 22.5 20 22.5 20 22.5 20 22.5 20 22.5 20 22.5 20 22.5 20 22.5 20 22.5 20 22.5 20 22.5 20 22.5 20 22.5 20 22.5 20 22.5 20 22.5 20 22.5 20 22.5 20 22.5 20 22.5 20 22.5 20 22.5 20 22.5 20 22.5 20 22.5 20 22.5 20 22.5 20 22.5 20 22.5 20 22.5 20 22.5 20 22.5 20 22.5 20 22.5 20 22.5 20 22.5 20 22.5 20 22.5 20 22.5 20 22.5 20 22.5 20 22.5 20 22.5 20 22.5 20 22.5 20 22.5 20 22.5 20 22.5 20 22.5 20 22.5 20 22.5 20 22.5 20 22.5 20 22.5 20 22.5 20 22.5 20 22.5 20 22.5 20 22.5 20 22.5 20 22.5 20 22.5 20 22.5 20 22.5 20 22.5 20 22.5 20 22.5 20 22.5 20 23 20ZM7.5 16V20H8.5V16H7.5ZM7.5 20V26.5H8.5V20H7.5ZM23 19.5H8V20.5H23V19.5ZM12.5 6C12.5 5.2 11.8 4.5 11 4.5V5.5C11.3 5.5 11.5 5.7 11.5 6H12.5ZM12.7 9.3C12.6 9.3 12.5 9.1 12.5 8.9H11.5C11.5 9.5 11.8 10 12.3 10.2L12.7 9.3ZM18.5 8.9C18.5 9.1 18.4 9.3 18.2 9.3L18.7 10.2C19.2 10 19.5 9.5 19.5 8.9H18.5ZM20 4.5C19.2 4.5 18.5 5.2 18.5 6H19.5C19.5 5.7 19.7 5.5 20 5.5V4.5Z" fill="black"/></svg>
