<svg width="18" height="20" viewBox="0 0 18 20" fill="none" xmlns="http://www.w3.org/2000/svg">
<mask id="path-1-inside-1" fill="white">
<path d="M17 19.471H1C0.447715 19.471 0 19.0233 0 18.471V14.471L0.941955 8.75396C0.979491 8.52614 1.0985 8.31474 1.27235 8.1628C7.52754 2.69598 9.32481 2.5209 16.2403 8.18811C16.4064 8.32419 16.5278 8.51421 16.5793 8.72264L18 14.471V18.471C18 19.0233 17.5523 19.471 17 19.471Z"/>
<path d="M10 2C10 3.10457 9.10457 4 8 4C6.89543 4 6 3.10457 6 2C6 0.89543 6.89543 0 8 0C9.10457 0 10 0.89543 10 2Z"/>
</mask>
<path d="M17 19.471H1C0.447715 19.471 0 19.0233 0 18.471V14.471L0.941955 8.75396C0.979491 8.52614 1.0985 8.31474 1.27235 8.1628C7.52754 2.69598 9.32481 2.5209 16.2403 8.18811C16.4064 8.32419 16.5278 8.51421 16.5793 8.72264L18 14.471V18.471C18 19.0233 17.5523 19.471 17 19.471Z" fill="#4F4F4F"/>
<path d="M10 2C10 3.10457 9.10457 4 8 4C6.89543 4 6 3.10457 6 2C6 0.89543 6.89543 0 8 0C9.10457 0 10 0.89543 10 2Z" fill="#4F4F4F"/>
<path d="M0 14.971H18V13.971H0V14.971ZM1.5 14V19H2.5V14H1.5ZM3.5 14V19H4.5V14H3.5ZM5.5 14V19H6.5V14H5.5ZM7.5 14V19H8.5V14H7.5ZM9.5 14V19H10.5V14H9.5ZM11.5 14V19H12.5V14H11.5ZM13.5 14V19H14.5V14H13.5ZM15.5 14V19H16.5V14H15.5ZM18 14.471H19V14.3493L18.9708 14.2311L18 14.471ZM0 14.471L-0.986697 14.3085L-1 14.3892V14.471H0ZM0.941955 8.75396L-0.0447415 8.59139L-0.0447415 8.59139L0.941955 8.75396ZM1.27235 8.1628L0.614289 7.40984L0.614289 7.40984L1.27235 8.1628ZM16.2403 8.18811L16.8742 7.41465L16.8742 7.41465L16.2403 8.18811ZM16.5793 8.72264L15.6085 8.96256L15.6085 8.96256L16.5793 8.72264ZM1 20.471H17V18.471H1V20.471ZM19 18.471V14.471H17V18.471H19ZM-1 14.471V18.471H1V14.471H-1ZM0.986697 14.6336L1.92865 8.91653L-0.0447415 8.59139L-0.986697 14.3085L0.986697 14.6336ZM1.93042 8.91577C3.48977 7.55294 4.71858 6.56776 5.7936 5.92003C6.85615 5.2798 7.7073 5.00739 8.51765 5.00015C9.33121 4.99288 10.2253 5.25179 11.3744 5.8966C12.5326 6.54654 13.8854 7.55119 15.6065 8.96157L16.8742 7.41465C15.1374 5.99142 13.6723 4.89275 12.3531 4.15245C11.0247 3.40703 9.78187 2.98878 8.49978 3.00023C7.21447 3.01172 6.01124 3.4539 4.76142 4.20695C3.52407 4.9525 2.18253 6.03925 0.614289 7.40984L1.93042 8.91577ZM15.6085 8.96256L17.0292 14.7109L18.9708 14.2311L17.5501 8.48271L15.6085 8.96256ZM1.92865 8.91653C1.92799 8.92056 1.92732 8.92071 1.92855 8.91851C1.92981 8.91627 1.93098 8.91527 1.93042 8.91577L0.614289 7.40984C0.26843 7.71211 0.0311028 8.13107 -0.0447415 8.59139L1.92865 8.91653ZM17 20.471C18.1046 20.471 19 19.5756 19 18.471H17V20.471ZM15.6065 8.96157C15.6059 8.96113 15.6073 8.96223 15.6088 8.96461C15.6103 8.96695 15.6096 8.96685 15.6085 8.96256L17.5501 8.48272C17.4459 8.06088 17.2041 7.68502 16.8742 7.41465L15.6065 8.96157ZM1 18.471V18.471H-1C-1 19.5756 -0.104572 20.471 1 20.471V18.471ZM9 2C9 2.55228 8.55228 3 8 3V5C9.65685 5 11 3.65685 11 2H9ZM8 3C7.44772 3 7 2.55228 7 2H5C5 3.65685 6.34315 5 8 5V3ZM7 2C7 1.44772 7.44772 1 8 1V-1C6.34315 -1 5 0.343146 5 2H7ZM8 1C8.55228 1 9 1.44772 9 2H11C11 0.343146 9.65685 -1 8 -1V1Z" fill="black" mask="url(#path-1-inside-1)"/>
</svg>
